<?xml version="1.0" encoding="UTF-8"?>
<svg width="140px" height="140px" viewBox="0 0 140 140" version="1.1" xmlns="http://www.w3.org/2000/svg" xmlns:xlink="http://www.w3.org/1999/xlink">
    <title>Group 9</title>
    <defs>
        <filter x="-15.1%" y="-59.3%" width="130.2%" height="220.0%" filterUnits="objectBoundingBox" id="filter-1">
            <feOffset dx="0" dy="1" in="SourceAlpha" result="shadowOffsetOuter1"></feOffset>
            <feGaussianBlur stdDeviation="3.5" in="shadowOffsetOuter1" result="shadowBlurOuter1"></feGaussianBlur>
            <feColorMatrix values="0 0 0 0 0   0 0 0 0 0   0 0 0 0 0  0 0 0 0.731061175 0" type="matrix" in="shadowBlurOuter1" result="shadowMatrixOuter1"></feColorMatrix>
            <feMerge>
                <feMergeNode in="shadowMatrixOuter1"></feMergeNode>
                <feMergeNode in="SourceGraphic"></feMergeNode>
            </feMerge>
        </filter>
        <polygon id="path-2" points="0 0 18.1999466 0 18.1999466 18.1999822 0 18.1999822"></polygon>
    </defs>
    <g id="Page-1" stroke="none" stroke-width="1" fill="none" fill-rule="evenodd">
        <g id="3.-Game_Mode_2" transform="translate(-1160.000000, -30.000000)">
            <g id="Group-9" transform="translate(1160.000000, 30.000000)">
                <path d="M7,0 L133,0 C136.865993,-7.10171439e-16 140,3.13400675 140,7 L140,133 C140,136.865993 136.865993,140 133,140 L7,140 C3.13400675,140 4.73447626e-16,136.865993 0,133 L0,7 C-4.73447626e-16,3.13400675 3.13400675,7.10171439e-16 7,0 Z" id="Rectangle-Copy-2" fill="#143C41" opacity="0.39512489" style="mix-blend-mode: multiply;"></path>
                <g id="img_mask_f-copy" filter="url(#filter-1)" transform="translate(69.749433, 82.467240) rotate(-330.000000) translate(-69.749433, -82.467240) translate(16.800000, 68.600000)">
                    <path d="M102.702153,1.13448071 C104.46765,1.13448071 105.898867,2.56569813 105.898867,4.33119429 L105.898867,24.5377671 C105.898867,26.3032633 104.46765,27.7344807 102.702153,27.7344807 C100.936657,27.7344807 99.5054398,26.3032633 99.5054398,24.5377671 L99.5052537,22.3334807 L82.1652537,22.3340319 L82.1652537,6.07580572 L99.5052537,6.07548071 L99.5054398,4.33119429 C99.5054398,2.56569813 100.936657,1.13448071 102.702153,1.13448071 Z" id="Combined-Shape" fill="#FFFFFF"></path>
                    <path d="M38.7338038,6.07580572 L80.552362,6.07580572 C81.4431375,6.07580572 82.1652537,6.79792191 82.1652537,7.68869737 L82.1652537,20.7211402 C82.1652537,21.6119157 81.4431375,22.3340319 80.552362,22.3340319 L38.7338038,22.3340319 C34.2442186,22.3340319 30.6046907,18.694504 30.6046907,14.2049188 C30.6046907,9.71533362 34.2442186,6.07580572 38.7338038,6.07580572 Z" id="Rectangle-Copy-10" fill="#94E806"></path>
                    <path d="M92.0925384,0.767612112 C93.6618683,0.767612112 94.9340616,2.03980538 94.9340616,3.6091353 L94.9340616,24.5260889 C94.9340616,26.0954188 93.6618683,27.3676121 92.0925384,27.3676121 C90.8981609,27.3676121 89.8758954,26.6307134 89.4555867,25.5867611 L38.731928,25.5856771 C34.1919803,25.5856771 30.2729151,22.9273631 28.4463657,19.0823684 L23.5511727,19.0823867 C20.8574216,19.0823867 18.6737048,16.8986699 18.6737048,14.2049188 C18.6737048,11.5111677 20.8574216,9.32745096 23.5511727,9.32745096 L28.4467322,9.32669779 C30.2734393,5.48211895 34.1922839,2.82416049 38.731928,2.82416049 L89.3609478,2.82374605 C89.7017049,1.63641655 90.7956616,0.767612112 92.0925384,0.767612112 Z" id="Combined-Shape" stroke="#FFFFFF" stroke-width="2.41933748" fill-opacity="0.509279905" fill="#FFFFFF" stroke-linejoin="round"></path>
                    <path d="M87.9912496,6.06957089 L87.9912496,22.1695709 L37.9412496,22.1695709 C34.0544364,22.1695709 30.8110074,19.4149157 30.0567373,15.7513802 L22.0456471,15.7515619 L22.0456471,12.2515619 L30.1092727,12.2508421 C30.951911,8.70610697 34.1386823,6.06957089 37.9412496,6.06957089 L87.9912496,6.06957089 Z" id="Combined-Shape" fill="#AAFF1A"></path>
                    <path d="M14.4663263,14.7329709 C11.1850931,12.8343661 9.55041247,9.91973947 9.56228452,5.98909111 C9.58009259,0.0931185825 13.3050584,0.178418863 14.5077044,1.03334047 C15.7103503,1.88826208 16.6648704,3.2690679 14.4878389,7.61046699 C13.0364847,10.5047331 13.0293138,12.878901 14.4663263,14.7329709 Z" id="Path-15" fill="#AAFF1A" transform="translate(12.675363, 7.671760) rotate(-30.000000) translate(-12.675363, -7.671760) "></path>
                    <path d="M6.65188181,21.8113336 C4.32259735,20.4723507 3.16238656,18.4163992 3.17124942,15.6434792 C3.18454371,11.4840991 5.82905416,11.5438114 6.68277186,12.1467754 C7.53648956,12.7497395 8.21399346,13.7237251 6.66794169,16.7866832 C5.63724052,18.8286553 5.63188722,20.5035388 6.65188181,21.8113336 Z" id="Path-15-Copy" fill="#AAFF1A" transform="translate(5.381502, 16.830016) scale(-1, 1) rotate(123.000000) translate(-5.381502, -16.830016) "></path>
                    <ellipse id="Oval" fill="#FFFFFF" cx="36.5230005" cy="12.5790962" rx="2.41690139" ry="2.43873393"></ellipse>
                    <ellipse id="Oval-Copy-3" fill="#FFFFFF" cx="41.3568033" cy="9.32745096" rx="1.61126759" ry="1.62582262"></ellipse>
                    <line x1="63.5117327" y1="4.04352745" x2="63.5117327" y2="10.5468179" id="Path" stroke="#FFFFFF" stroke-width="2.41933748" stroke-linecap="round" stroke-linejoin="round"></line>
                    <line x1="69.9568031" y1="4.04352745" x2="69.9568031" y2="10.5468179" id="Path-Copy-6" stroke="#FFFFFF" stroke-width="2.41933748" stroke-linecap="round" stroke-linejoin="round"></line>
                    <line x1="76.6544176" y1="4.27968776" x2="76.6544176" y2="10.7829782" id="Path-Copy-7" stroke="#FFFFFF" stroke-width="2.41933748" stroke-linecap="round" stroke-linejoin="round"></line>
                    <line x1="83.3520321" y1="4.51584807" x2="83.3520321" y2="11.0191385" id="Path-Copy-8" stroke="#FFFFFF" stroke-width="2.41933748" stroke-linecap="round" stroke-linejoin="round"></line>
                    <line x1="57.0666623" y1="4.04352745" x2="57.0666623" y2="10.5468179" id="Path-Copy-4" stroke="#FFFFFF" stroke-width="2.41933748" stroke-linecap="round" stroke-linejoin="round"></line>
                    <line x1="49.8159582" y1="4.04352745" x2="49.8159582" y2="10.5468179" id="Path-Copy-5" stroke="#FFFFFF" stroke-width="2.41933748" stroke-linecap="round" stroke-linejoin="round"></line>
                </g>
                <text id="15" font-family="Quicksand-Medium, Quicksand" font-size="27.6315789" font-weight="400" fill="#FFFFFF">
                    <tspan x="42.9671053" y="39.9">15</tspan>
                </text>
                <g id="coin" transform="translate(14.000000, 19.600000)">
                    <g id="Group-3" transform="translate(0.000053, 0.000018)">
                        <mask id="mask-3" fill="white">
                            <use xlink:href="#path-2"></use>
                        </mask>
                        <g id="Clip-2"></g>
                        <path d="M18.1999466,9.1000178 C18.1999466,14.1255841 14.1258311,18.2000356 9.10006229,18.2000356 C4.07411551,18.2000356 0,14.1255841 0,9.1000178 C0,4.07409559 4.07411551,0 9.10006229,0 C14.1258311,0 18.1999466,4.07409559 18.1999466,9.1000178" id="Fill-1" fill="#FDCA2F" mask="url(#mask-3)"></path>
                    </g>
                    <path d="M16.0624198,3.24258213 C14.3931554,1.26044056 11.8943314,0 9.10006229,0 C4.07411551,0 0,4.07409559 0,9.1000178 C0,10.1559616 0.181894458,11.1688347 0.512579296,12.1119404 C5.64424556,9.06566803 10.8234322,6.10073167 16.0624198,3.24258213" id="Fill-4" fill="#FADA64"></path>
                    <path d="M10.1521847,18.1376365 C12.2398774,17.8970102 14.1129276,16.9519467 15.5251904,15.5436064 C14.1043846,16.2266861 12.6869605,16.917419 11.2679346,17.6038803 C10.8970265,17.7834602 10.5238047,17.9593025 10.1521847,18.1376365" id="Fill-6" fill="#FADA64"></path>
                    <path d="M15.8737621,8.95594456 C15.8737621,12.7767774 12.7767509,15.8737735 8.95589937,15.8737735 C5.13504786,15.8737735 2.03803664,12.7767774 2.03803664,8.95594456 C2.03803664,5.13511174 5.13504786,2.03793768 8.95589937,2.03793768 C12.7767509,2.03793768 15.8737621,5.13511174 15.8737621,8.95594456" id="Fill-8" fill="#D8811F"></path>
                    <path d="M16.0691118,9.24412663 C16.0691118,13.0137018 13.0137476,16.069229 9.24415403,16.069229 C5.47473843,16.069229 2.4191963,13.0137018 2.4191963,9.24412663 C2.4191963,5.47472946 5.47473843,2.41902429 9.24415403,2.41902429 C13.0137476,2.41902429 16.0691118,5.47472946 16.0691118,9.24412663" id="Fill-10" fill="#EEA928"></path>
                    <path d="M9.14993199,13.1584157 C8.651591,13.1584157 8.20308412,13.0959454 7.80441133,12.9715388 C7.40556057,12.8471321 7.02486366,12.6282191 6.66178665,12.3149777 C6.56923761,12.2364894 6.49804605,12.1476784 6.44821195,12.0480107 C6.39837785,11.9483429 6.3734608,11.8486752 6.3734608,11.7488295 C6.3734608,11.5852677 6.43219384,11.4411055 6.54965993,11.3163429 C6.66712602,11.1919362 6.81484853,11.1296439 6.99282745,11.1296439 C7.12791345,11.1296439 7.2491171,11.1723586 7.35590445,11.2576101 C7.62625443,11.4784809 7.89518059,11.6457803 8.16214897,11.7596862 C8.42911735,11.8734142 8.75837836,11.9305451 9.14993199,11.9305451 C9.41316281,11.9305451 9.65539213,11.8896102 9.87608599,11.8075623 C10.0966019,11.7258704 10.2747588,11.615346 10.4100228,11.4767011 C10.5451088,11.3378782 10.6129187,11.1794778 10.6129187,11.0014997 C10.6129187,10.787926 10.5488463,10.6062105 10.4207015,10.4567089 C10.2925567,10.3072073 10.0966019,10.1810209 9.83337105,10.0776156 C9.56996224,9.97456635 9.23536187,9.89447623 8.82956993,9.83752325 C8.44513545,9.78057027 8.1069755,9.69318305 7.81509007,9.57571754 C7.52302666,9.45825202 7.27937351,9.30875046 7.0835967,9.12739082 C6.88781989,8.94567523 6.7399194,8.73227955 6.64042918,8.48649186 C6.54058301,8.24088215 6.49092689,7.96501616 6.49092689,7.65907189 C6.49092689,7.19632896 6.60999479,6.8010397 6.84866452,6.47356009 C7.08715628,6.14625845 7.40929813,5.8969112 7.81509007,5.72605227 C8.22088201,5.55519334 8.6693889,5.46994185 9.16061072,5.46994185 C9.62335592,5.46994185 10.0522851,5.53917532 10.4473983,5.67817617 C10.8425115,5.81682108 11.1644754,5.99301935 11.4138239,6.20659301 C11.6202794,6.3705108 11.7235072,6.55898955 11.7235072,6.77256322 C11.7235072,6.92936188 11.6629944,7.07174432 11.5419687,7.19988852 C11.4207651,7.32785474 11.2783819,7.39210482 11.1148193,7.39210482 C11.0080319,7.39210482 10.9119233,7.35989079 10.8264934,7.29599667 C10.7125869,7.19632896 10.5595251,7.10200059 10.3673078,7.01301156 C10.1750906,6.92402254 9.97219461,6.84927176 9.7586199,6.78858124 C9.54504519,6.72824668 9.3457088,6.69781243 9.16061072,6.69781243 C8.85448698,6.69781243 8.59623956,6.73714558 8.38640241,6.81527795 C8.17638728,6.89376627 8.01798604,7.0005531 7.91119869,7.13563844 C7.80441133,7.27107974 7.75101766,7.42770043 7.75101766,7.60567848 C7.75101766,7.81907416 7.81331028,7.99527243 7.93789553,8.13427329 C8.06230279,8.27309617 8.24223948,8.38344256 8.47717166,8.46531247 C8.71210384,8.54718237 8.99331054,8.6199754 9.32079175,8.68404749 C9.74794117,8.76253582 10.1232987,8.85490642 10.4473983,8.96169326 C10.77132,9.06865807 11.0400681,9.20570117 11.2536428,9.37282256 C11.4672176,9.5402999 11.6273986,9.750314 11.7341859,10.0030428 C11.8409733,10.2555937 11.894367,10.5634957 11.894367,10.9265709 C11.894367,11.3894919 11.7662221,11.7881627 11.5099325,12.1227614 C11.2536428,12.4573602 10.9172627,12.7136486 10.500792,12.8914486 C10.0843213,13.0694267 9.63403466,13.1584157 9.14993199,13.1584157" id="Fill-28" fill="#E89B25"></path>
                    <path d="M8.97195306,12.9804377 C8.47361208,12.9804377 8.0251052,12.9179674 7.62643241,12.7935607 C7.22758165,12.6691541 6.84688473,12.4502411 6.48380773,12.1369997 C6.39125869,12.0585114 6.32006712,11.9697003 6.27023303,11.8700326 C6.22039893,11.7703649 6.19548188,11.6706972 6.19548188,11.5708515 C6.19548188,11.4072897 6.25421492,11.2631274 6.37168101,11.1383648 C6.4891471,11.0139582 6.63686961,10.9516659 6.81484853,10.9516659 C6.94993453,10.9516659 7.07113818,10.9943806 7.17792553,11.0796321 C7.44827551,11.3005028 7.71720166,11.4678022 7.98417005,11.5817082 C8.25113843,11.6954361 8.58039944,11.7525671 8.97195306,11.7525671 C9.23518389,11.7525671 9.4774132,11.7116321 9.69810707,11.6295843 C9.91862295,11.5478923 10.0967799,11.437368 10.2320438,11.2987231 C10.3671298,11.1599002 10.4349398,11.0014997 10.4349398,10.8235217 C10.4349398,10.609948 10.3708674,10.4282324 10.2427226,10.2787308 C10.1145777,10.1292293 9.91862295,10.0030428 9.65539213,9.89963759 C9.39198332,9.7965883 9.05738295,9.71649817 8.651591,9.6595452 C8.26715653,9.60259222 7.92899658,9.515205 7.63711115,9.39773948 C7.34504774,9.28027397 7.10139459,9.13077241 6.90561778,8.94941277 C6.70984096,8.76769718 6.56194048,8.55430149 6.46245026,8.30851381 C6.36260409,8.06290409 6.31294797,7.78703811 6.31294797,7.48109384 C6.31294797,7.01835091 6.43201587,6.62306165 6.6706856,6.29558204 C6.90917736,5.9682804 7.23131921,5.71893315 7.63711115,5.54807422 C8.04290309,5.37721529 8.49140997,5.2919638 8.9826318,5.2919638 C9.445377,5.2919638 9.8743062,5.36119726 10.2694194,5.50019812 C10.6645326,5.63884303 10.9864965,5.8150413 11.235845,6.02861496 C11.4423005,6.19253275 11.5455283,6.3810115 11.5455283,6.59458516 C11.5455283,6.75138383 11.4850154,6.89376627 11.3639898,7.02191047 C11.2427861,7.14987669 11.100403,7.21412676 10.9368404,7.21412676 C10.830053,7.21412676 10.7339444,7.18191274 10.6485145,7.11801862 C10.534608,7.01835091 10.3815461,6.92402254 10.1893289,6.83503351 C9.99711166,6.74604449 9.79421569,6.6712937 9.58064098,6.61060319 C9.36706627,6.55026863 9.16772988,6.51983438 8.9826318,6.51983438 C8.67650805,6.51983438 8.41826064,6.55916753 8.20842349,6.6372999 C7.99840836,6.71578822 7.84000712,6.82257505 7.73321977,6.95766039 C7.62643241,7.09310169 7.57303874,7.24972237 7.57303874,7.42770043 C7.57303874,7.64109611 7.63533136,7.81729438 7.7599166,7.95629524 C7.88432387,8.09511812 8.06426056,8.20546451 8.29919274,8.28733442 C8.53412492,8.36920432 8.81533161,8.44199734 9.14281283,8.50606944 C9.56996224,8.58455776 9.94531979,8.67692837 10.2694194,8.7837152 C10.593341,8.89068001 10.8620892,9.02772311 11.0756639,9.1948445 C11.2892386,9.36232185 11.4494197,9.57233595 11.556207,9.82506479 C11.6629944,10.0776156 11.716388,10.3855177 11.716388,10.7485929 C11.716388,11.2115138 11.5882432,11.6101846 11.3319536,11.9447834 C11.0756639,12.2793821 10.7392838,12.5356705 10.3228131,12.7134706 C9.90634241,12.8914486 9.45605573,12.9804377 8.97195306,12.9804377" id="Fill-30" fill="#FDCA2F"></path>
                </g>
                <text id="H" font-family="Quicksand-Bold, Quicksand" font-size="35" font-weight="bold" fill="#FFFFFF">
                    <tspan x="101.8675" y="42">H</tspan>
                </text>
            </g>
        </g>
    </g>
</svg>