<svg xmlns="http://www.w3.org/2000/svg" xmlns:xlink="http://www.w3.org/1999/xlink" width="200" height="200" viewBox="0 0 200 200">
    <defs>
        <filter id="iyidtsrnmc" width="134.6%" height="200%" x="-17.3%" y="-50%" filterUnits="objectBoundingBox">
            <feOffset dy="2" in="SourceAlpha" result="shadowOffsetOuter1"/>
            <feGaussianBlur in="shadowOffsetOuter1" result="shadowBlurOuter1" stdDeviation="4"/>
            <feColorMatrix in="shadowBlurOuter1" result="shadowMatrixOuter1" values="0 0 0 0 0 0 0 0 0 0 0 0 0 0 0 0 0 0 0.731061175 0"/>
            <feMerge>
                <feMergeNode in="shadowMatrixOuter1"/>
                <feMergeNode in="SourceGraphic"/>
            </feMerge>
        </filter>
        <path id="r2uvfu6oja" d="M0 0L20 0 20 20 0 20z"/>
    </defs>
    <g fill="none" fill-rule="evenodd">
        <g>
            <g>
                <path fill="#143C41" d="M10 0h180c5.523 0 10 4.477 10 10v180c0 5.523-4.477 10-10 10H10c-5.523 0-10-4.477-10-10V10C0 4.477 4.477 0 10 0z" opacity=".803" style="mix-blend-mode:multiply" transform="translate(-5 -35) translate(5 35)"/>
                <g>
                    <g transform="translate(-5 -35) translate(5 35) translate(20 31)">
                        <mask id="oqfhqtsepb" fill="#fff">
                            <use xlink:href="#r2uvfu6oja"/>
                        </mask>
                        <path fill="#FDCA2F" d="M20 10c0 5.523-4.477 10-10 10S0 15.523 0 10 4.477 0 10 0s10 4.477 10 10" mask="url(#oqfhqtsepb)"/>
                    </g>
                    <path fill="#FADA64" d="M17.651 3.563C15.817 1.385 13.071 0 10.001 0 4.476 0 0 4.477 0 10c0 1.16.2 2.273.563 3.31 5.64-3.348 11.33-6.606 17.088-9.747M11.156 19.931c2.294-.264 4.353-1.302 5.905-2.85-1.562.75-3.12 1.51-4.679 2.264-.407.197-.817.39-1.226.586" transform="translate(-5 -35) translate(5 35) translate(20 31)"/>
                    <path fill="#D8811F" d="M17.444 9.842c0 4.198-3.404 7.602-7.602 7.602-4.2 0-7.602-3.404-7.602-7.602 0-4.199 3.403-7.603 7.602-7.603 4.198 0 7.602 3.404 7.602 7.603" transform="translate(-5 -35) translate(5 35) translate(20 31)"/>
                    <path fill="#EEA928" d="M17.658 10.158c0 4.143-3.357 7.5-7.5 7.5-4.142 0-7.5-3.357-7.5-7.5 0-4.142 3.358-7.5 7.5-7.5 4.143 0 7.5 3.358 7.5 7.5" transform="translate(-5 -35) translate(5 35) translate(20 31)"/>
                    <path fill="#E89B25" d="M10.055 14.46c-.548 0-1.04-.069-1.479-.206-.438-.136-.856-.377-1.255-.721-.102-.086-.18-.184-.235-.293-.055-.11-.082-.22-.082-.33 0-.179.064-.337.193-.474.13-.137.292-.206.487-.206.149 0 .282.047.4.141.296.243.592.427.885.552.294.125.656.187 1.086.187.29 0 .555-.044.798-.135.242-.09.438-.21.587-.363.148-.153.223-.327.223-.522 0-.235-.07-.435-.212-.6-.14-.163-.356-.302-.645-.416-.29-.113-.657-.2-1.103-.264-.423-.062-.794-.158-1.115-.287-.32-.13-.589-.294-.804-.493-.215-.2-.377-.434-.487-.704-.11-.27-.164-.573-.164-.91 0-.508.13-.942.393-1.302.262-.36.616-.634 1.062-.822.446-.187.939-.281 1.479-.281.508 0 .98.076 1.414.229.434.152.788.346 1.062.58.227.18.34.388.34.622 0 .173-.067.33-.2.47-.133.14-.29.211-.469.211-.117 0-.223-.035-.317-.105-.125-.11-.293-.214-.504-.311-.212-.098-.435-.18-.67-.247-.234-.066-.453-.1-.656-.1-.337 0-.62.043-.851.13-.231.086-.405.203-.522.351-.118.15-.176.321-.176.517 0 .234.068.428.205.58.137.153.334.275.593.365.258.09.567.17.927.24.469.086.882.188 1.238.305.356.118.65.268.886.452.234.184.41.415.528.692.117.278.176.616.176 1.015 0 .509-.141.947-.423 1.315-.281.367-.651.649-1.109.844-.457.196-.952.294-1.484.294" transform="translate(-5 -35) translate(5 35) translate(20 31)"/>
                    <path fill="#FDCA2F" d="M9.86 14.264c-.548 0-1.041-.068-1.48-.205-.438-.137-.856-.377-1.255-.722-.102-.086-.18-.183-.235-.293-.054-.11-.082-.22-.082-.329 0-.18.065-.338.194-.475.129-.137.291-.205.487-.205.148 0 .281.047.399.14.297.243.592.427.886.552.293.125.655.188 1.085.188.29 0 .556-.045.798-.135.243-.09.438-.211.587-.364.148-.152.223-.326.223-.522 0-.235-.07-.434-.211-.599-.141-.164-.356-.303-.646-.416-.29-.114-.657-.202-1.103-.264-.422-.063-.794-.159-1.115-.288-.32-.129-.588-.293-.803-.492-.216-.2-.378-.435-.487-.705-.11-.27-.165-.573-.165-.909 0-.509.131-.943.393-1.303.263-.36.617-.633 1.062-.821.446-.188.94-.282 1.479-.282.509 0 .98.076 1.414.23.434.152.788.345 1.062.58.227.18.34.387.34.622 0 .172-.066.329-.2.47-.132.14-.289.21-.468.21-.118 0-.223-.035-.317-.105-.126-.11-.294-.213-.505-.311-.211-.098-.434-.18-.669-.247-.235-.066-.454-.1-.657-.1-.336 0-.62.044-.85.13-.232.086-.406.203-.523.352-.117.149-.176.32-.176.516 0 .235.068.428.205.581.137.153.335.274.593.364.258.09.567.17.927.24.47.087.882.188 1.238.305.356.118.651.269.886.452.235.184.41.415.528.693.117.277.176.616.176 1.015 0 .508-.14.946-.422 1.314-.282.368-.652.65-1.11.845-.457.195-.952.293-1.484.293" transform="translate(-5 -35) translate(5 35) translate(20 31)"/>
                </g>
                <g stroke="#EEE" stroke-linejoin="round" stroke-width="5" filter="url(#iyidtsrnmc)" transform="translate(-5 -35) translate(5 35) translate(35 110)">
                    <path stroke-linecap="round" d="M130 2.5L0 2.5M130 37.5L0 37.5"/>
                    <path fill="#FFF" d="M30 2.5H105V37.5H30z"/>
                    <path fill="#FFF" stroke-linecap="round" d="M53.365 17.5L80.031 17.5M53.365 27.5L80.031 27.5"/>
                </g>
            </g>
        </g>
    </g>
</svg>
