<?xml version="1.0" encoding="UTF-8"?>
<svg width="143px" height="140px" viewBox="0 0 143 140" version="1.1" xmlns="http://www.w3.org/2000/svg" xmlns:xlink="http://www.w3.org/1999/xlink">
    <title>Group 8</title>
    <defs>
        <filter x="-15.9%" y="-45.7%" width="131.9%" height="191.4%" filterUnits="objectBoundingBox" id="filter-1">
            <feOffset dx="0" dy="1" in="SourceAlpha" result="shadowOffsetOuter1"></feOffset>
            <feGaussianBlur stdDeviation="3.5" in="shadowOffsetOuter1" result="shadowBlurOuter1"></feGaussianBlur>
            <feColorMatrix values="0 0 0 0 0   0 0 0 0 0   0 0 0 0 0  0 0 0 0.731061175 0" type="matrix" in="shadowBlurOuter1" result="shadowMatrixOuter1"></feColorMatrix>
            <feMerge>
                <feMergeNode in="shadowMatrixOuter1"></feMergeNode>
                <feMergeNode in="SourceGraphic"></feMergeNode>
            </feMerge>
        </filter>
        <polygon id="path-2" points="0 0 18.1999466 0 18.1999466 18.1999822 0 18.1999822"></polygon>
    </defs>
    <g id="Page-1" stroke="none" stroke-width="1" fill="none" fill-rule="evenodd">
        <g id="3.-Game_Mode_2" transform="translate(-989.000000, -30.000000)">
            <g id="Group-8" transform="translate(990.000000, 30.000000)">
                <path d="M7,0 L133,0 C136.865993,-7.10171439e-16 140,3.13400675 140,7 L140,133 C140,136.865993 136.865993,140 133,140 L7,140 C3.13400675,140 4.73447626e-16,136.865993 0,133 L0,7 C-4.73447626e-16,3.13400675 3.13400675,7.10171439e-16 7,0 Z" id="Rectangle" fill="#143C41" opacity="0.39512489" style="mix-blend-mode: multiply;"></path>
                <g id="Group" transform="translate(13.300000, 73.500000)" stroke="#EEEEEE" stroke-linejoin="round" stroke-width="4.375">
                    <g id="img_mask_f" filter="url(#filter-1)">
                        <line x1="114.1" y1="2.1875" x2="0" y2="2.1875" id="Path-6" stroke-linecap="round"></line>
                        <line x1="114.1" y1="32.8125" x2="0" y2="32.8125" id="Path-6-Copy" stroke-linecap="round"></line>
                        <rect id="Rectangle" fill="#FFFFFF" x="26.3307692" y="2.1875" width="65.8269231" height="30.625"></rect>
                        <line x1="46.8377171" y1="15.3125" x2="70.2428453" y2="15.3125" id="Path-2" fill="#FFFFFF" stroke-linecap="round"></line>
                        <line x1="46.8377171" y1="24.0625" x2="70.2428453" y2="24.0625" id="Path-2-Copy" fill="#FFFFFF" stroke-linecap="round"></line>
                    </g>
                </g>
                <text id="10" font-family="Quicksand-Medium, Quicksand" font-size="27.6315789" font-weight="400" fill="#FFFFFF">
                    <tspan x="42.0782895" y="39.9">10</tspan>
                </text>
                <g id="coin" transform="translate(14.000000, 19.600000)">
                    <g id="Group-3" transform="translate(0.000053, 0.000018)">
                        <mask id="mask-3" fill="white">
                            <use xlink:href="#path-2"></use>
                        </mask>
                        <g id="Clip-2"></g>
                        <path d="M18.1999466,9.1000178 C18.1999466,14.1255841 14.1258311,18.2000356 9.10006229,18.2000356 C4.07411551,18.2000356 0,14.1255841 0,9.1000178 C0,4.07409559 4.07411551,0 9.10006229,0 C14.1258311,0 18.1999466,4.07409559 18.1999466,9.1000178" id="Fill-1" fill="#FDCA2F" mask="url(#mask-3)"></path>
                    </g>
                    <path d="M16.0624198,3.24258213 C14.3931554,1.26044056 11.8943314,0 9.10006229,0 C4.07411551,0 0,4.07409559 0,9.1000178 C0,10.1559616 0.181894458,11.1688347 0.512579296,12.1119404 C5.64424556,9.06566803 10.8234322,6.10073167 16.0624198,3.24258213" id="Fill-4" fill="#FADA64"></path>
                    <path d="M10.1521847,18.1376365 C12.2398774,17.8970102 14.1129276,16.9519467 15.5251904,15.5436064 C14.1043846,16.2266861 12.6869605,16.917419 11.2679346,17.6038803 C10.8970265,17.7834602 10.5238047,17.9593025 10.1521847,18.1376365" id="Fill-6" fill="#FADA64"></path>
                    <path d="M15.8737621,8.95594456 C15.8737621,12.7767774 12.7767509,15.8737735 8.95589937,15.8737735 C5.13504786,15.8737735 2.03803664,12.7767774 2.03803664,8.95594456 C2.03803664,5.13511174 5.13504786,2.03793768 8.95589937,2.03793768 C12.7767509,2.03793768 15.8737621,5.13511174 15.8737621,8.95594456" id="Fill-8" fill="#D8811F"></path>
                    <path d="M16.0691118,9.24412663 C16.0691118,13.0137018 13.0137476,16.069229 9.24415403,16.069229 C5.47473843,16.069229 2.4191963,13.0137018 2.4191963,9.24412663 C2.4191963,5.47472946 5.47473843,2.41902429 9.24415403,2.41902429 C13.0137476,2.41902429 16.0691118,5.47472946 16.0691118,9.24412663" id="Fill-10" fill="#EEA928"></path>
                    <path d="M9.14993199,13.1584157 C8.651591,13.1584157 8.20308412,13.0959454 7.80441133,12.9715388 C7.40556057,12.8471321 7.02486366,12.6282191 6.66178665,12.3149777 C6.56923761,12.2364894 6.49804605,12.1476784 6.44821195,12.0480107 C6.39837785,11.9483429 6.3734608,11.8486752 6.3734608,11.7488295 C6.3734608,11.5852677 6.43219384,11.4411055 6.54965993,11.3163429 C6.66712602,11.1919362 6.81484853,11.1296439 6.99282745,11.1296439 C7.12791345,11.1296439 7.2491171,11.1723586 7.35590445,11.2576101 C7.62625443,11.4784809 7.89518059,11.6457803 8.16214897,11.7596862 C8.42911735,11.8734142 8.75837836,11.9305451 9.14993199,11.9305451 C9.41316281,11.9305451 9.65539213,11.8896102 9.87608599,11.8075623 C10.0966019,11.7258704 10.2747588,11.615346 10.4100228,11.4767011 C10.5451088,11.3378782 10.6129187,11.1794778 10.6129187,11.0014997 C10.6129187,10.787926 10.5488463,10.6062105 10.4207015,10.4567089 C10.2925567,10.3072073 10.0966019,10.1810209 9.83337105,10.0776156 C9.56996224,9.97456635 9.23536187,9.89447623 8.82956993,9.83752325 C8.44513545,9.78057027 8.1069755,9.69318305 7.81509007,9.57571754 C7.52302666,9.45825202 7.27937351,9.30875046 7.0835967,9.12739082 C6.88781989,8.94567523 6.7399194,8.73227955 6.64042918,8.48649186 C6.54058301,8.24088215 6.49092689,7.96501616 6.49092689,7.65907189 C6.49092689,7.19632896 6.60999479,6.8010397 6.84866452,6.47356009 C7.08715628,6.14625845 7.40929813,5.8969112 7.81509007,5.72605227 C8.22088201,5.55519334 8.6693889,5.46994185 9.16061072,5.46994185 C9.62335592,5.46994185 10.0522851,5.53917532 10.4473983,5.67817617 C10.8425115,5.81682108 11.1644754,5.99301935 11.4138239,6.20659301 C11.6202794,6.3705108 11.7235072,6.55898955 11.7235072,6.77256322 C11.7235072,6.92936188 11.6629944,7.07174432 11.5419687,7.19988852 C11.4207651,7.32785474 11.2783819,7.39210482 11.1148193,7.39210482 C11.0080319,7.39210482 10.9119233,7.35989079 10.8264934,7.29599667 C10.7125869,7.19632896 10.5595251,7.10200059 10.3673078,7.01301156 C10.1750906,6.92402254 9.97219461,6.84927176 9.7586199,6.78858124 C9.54504519,6.72824668 9.3457088,6.69781243 9.16061072,6.69781243 C8.85448698,6.69781243 8.59623956,6.73714558 8.38640241,6.81527795 C8.17638728,6.89376627 8.01798604,7.0005531 7.91119869,7.13563844 C7.80441133,7.27107974 7.75101766,7.42770043 7.75101766,7.60567848 C7.75101766,7.81907416 7.81331028,7.99527243 7.93789553,8.13427329 C8.06230279,8.27309617 8.24223948,8.38344256 8.47717166,8.46531247 C8.71210384,8.54718237 8.99331054,8.6199754 9.32079175,8.68404749 C9.74794117,8.76253582 10.1232987,8.85490642 10.4473983,8.96169326 C10.77132,9.06865807 11.0400681,9.20570117 11.2536428,9.37282256 C11.4672176,9.5402999 11.6273986,9.750314 11.7341859,10.0030428 C11.8409733,10.2555937 11.894367,10.5634957 11.894367,10.9265709 C11.894367,11.3894919 11.7662221,11.7881627 11.5099325,12.1227614 C11.2536428,12.4573602 10.9172627,12.7136486 10.500792,12.8914486 C10.0843213,13.0694267 9.63403466,13.1584157 9.14993199,13.1584157" id="Fill-28" fill="#E89B25"></path>
                    <path d="M8.97195306,12.9804377 C8.47361208,12.9804377 8.0251052,12.9179674 7.62643241,12.7935607 C7.22758165,12.6691541 6.84688473,12.4502411 6.48380773,12.1369997 C6.39125869,12.0585114 6.32006712,11.9697003 6.27023303,11.8700326 C6.22039893,11.7703649 6.19548188,11.6706972 6.19548188,11.5708515 C6.19548188,11.4072897 6.25421492,11.2631274 6.37168101,11.1383648 C6.4891471,11.0139582 6.63686961,10.9516659 6.81484853,10.9516659 C6.94993453,10.9516659 7.07113818,10.9943806 7.17792553,11.0796321 C7.44827551,11.3005028 7.71720166,11.4678022 7.98417005,11.5817082 C8.25113843,11.6954361 8.58039944,11.7525671 8.97195306,11.7525671 C9.23518389,11.7525671 9.4774132,11.7116321 9.69810707,11.6295843 C9.91862295,11.5478923 10.0967799,11.437368 10.2320438,11.2987231 C10.3671298,11.1599002 10.4349398,11.0014997 10.4349398,10.8235217 C10.4349398,10.609948 10.3708674,10.4282324 10.2427226,10.2787308 C10.1145777,10.1292293 9.91862295,10.0030428 9.65539213,9.89963759 C9.39198332,9.7965883 9.05738295,9.71649817 8.651591,9.6595452 C8.26715653,9.60259222 7.92899658,9.515205 7.63711115,9.39773948 C7.34504774,9.28027397 7.10139459,9.13077241 6.90561778,8.94941277 C6.70984096,8.76769718 6.56194048,8.55430149 6.46245026,8.30851381 C6.36260409,8.06290409 6.31294797,7.78703811 6.31294797,7.48109384 C6.31294797,7.01835091 6.43201587,6.62306165 6.6706856,6.29558204 C6.90917736,5.9682804 7.23131921,5.71893315 7.63711115,5.54807422 C8.04290309,5.37721529 8.49140997,5.2919638 8.9826318,5.2919638 C9.445377,5.2919638 9.8743062,5.36119726 10.2694194,5.50019812 C10.6645326,5.63884303 10.9864965,5.8150413 11.235845,6.02861496 C11.4423005,6.19253275 11.5455283,6.3810115 11.5455283,6.59458516 C11.5455283,6.75138383 11.4850154,6.89376627 11.3639898,7.02191047 C11.2427861,7.14987669 11.100403,7.21412676 10.9368404,7.21412676 C10.830053,7.21412676 10.7339444,7.18191274 10.6485145,7.11801862 C10.534608,7.01835091 10.3815461,6.92402254 10.1893289,6.83503351 C9.99711166,6.74604449 9.79421569,6.6712937 9.58064098,6.61060319 C9.36706627,6.55026863 9.16772988,6.51983438 8.9826318,6.51983438 C8.67650805,6.51983438 8.41826064,6.55916753 8.20842349,6.6372999 C7.99840836,6.71578822 7.84000712,6.82257505 7.73321977,6.95766039 C7.62643241,7.09310169 7.57303874,7.24972237 7.57303874,7.42770043 C7.57303874,7.64109611 7.63533136,7.81729438 7.7599166,7.95629524 C7.88432387,8.09511812 8.06426056,8.20546451 8.29919274,8.28733442 C8.53412492,8.36920432 8.81533161,8.44199734 9.14281283,8.50606944 C9.56996224,8.58455776 9.94531979,8.67692837 10.2694194,8.7837152 C10.593341,8.89068001 10.8620892,9.02772311 11.0756639,9.1948445 C11.2892386,9.36232185 11.4494197,9.57233595 11.556207,9.82506479 C11.6629944,10.0776156 11.716388,10.3855177 11.716388,10.7485929 C11.716388,11.2115138 11.5882432,11.6101846 11.3319536,11.9447834 C11.0756639,12.2793821 10.7392838,12.5356705 10.3228131,12.7134706 C9.90634241,12.8914486 9.45605573,12.9804377 8.97195306,12.9804377" id="Fill-30" fill="#FDCA2F"></path>
                </g>
                <text id="M" font-family="Quicksand-Bold, Quicksand" font-size="35" font-weight="bold" fill="#FFFFFF">
                    <tspan x="100.4675" y="42">M</tspan>
                </text>
            </g>
        </g>
    </g>
</svg>