<?xml version="1.0" encoding="UTF-8"?>
<svg width="874px" height="158px" viewBox="0 0 874 158" version="1.1" xmlns="http://www.w3.org/2000/svg" xmlns:xlink="http://www.w3.org/1999/xlink">
    <title>img_main_logo</title>
    <defs>
        <path d="M466.070005,7.09424294 L451.305543,76.5338591 C450.929194,77.7907575 450.739411,79.1714169 450.739411,80.679052 C450.739411,82.4358166 451.157576,83.6718202 451.997124,84.3822411 C452.833455,85.0958764 454.173194,85.4494796 456.017947,85.4494796 C458.404708,85.4494796 460.540569,84.3822411 462.425531,82.247764 C463.433953,81.0535499 464.329793,79.4832306 465.137174,77.6187778 C465.29479,75.9311265 465.56499,74.1181069 465.981547,72.1395367 L465.981547,72.1395367 L474.714774,30.8901256 L493.247552,30.8901256 L484.012526,74.5874347 C483.676385,75.6771752 483.509119,77.0594419 483.509119,78.7326276 C483.509119,80.4893922 483.917634,81.7253958 484.734666,82.4358166 C485.551697,83.149452 486.880177,83.5030551 488.72493,83.5030551 C489.981035,83.5030551 491.206582,83.2217799 492.399963,82.6560149 C493.048119,82.3506304 493.664109,81.9632743 494.255975,81.5276995 C494.255975,81.5051975 494.252758,81.4826955 494.252758,81.4585862 C494.252758,79.250174 494.60659,77.1639156 495.315863,75.2014183 C496.026745,73.2421355 497.023909,71.5351968 498.310572,70.0838167 C499.597236,68.6324367 501.097807,67.5041213 502.813894,66.695656 C504.528373,65.8871906 506.344177,65.4837616 508.25648,65.4837616 C510.633591,65.4837616 512.627919,66.0784578 514.245898,67.2646355 C515.862269,68.4508133 516.869083,70.0838167 517.264732,72.1604314 C513.732841,72.1604314 510.929524,73.1006943 508.849954,74.9796127 C507.860831,75.8684423 507.093658,76.9565756 506.550043,78.2440124 C506.006428,79.5298419 505.733012,80.9474689 505.733012,82.4952862 C505.733012,85.4639451 506.599901,87.8121913 508.332072,89.5432393 C510.062634,91.2742873 512.39632,92.1390077 515.333129,92.1390077 C517.081383,92.1390077 518.715445,91.8175503 520.2321,91.1762428 C521.750363,90.5317208 523.069193,89.6525348 524.191806,88.5290413 C525.31442,87.4087623 526.179701,86.0650704 526.790866,84.499573 C527.398815,82.9340756 527.706006,81.2608899 527.706006,79.4784087 C527.706006,76.1834706 526.583392,72.7535203 524.339773,69.1933798 C523.448758,67.8095058 522.467677,66.4481338 521.39653,65.1124784 C520.323775,63.7784302 518.829637,62.0055928 516.917333,59.7955733 C515.201246,57.8186104 513.766616,56.1036352 512.611836,54.6538625 C511.455447,53.2040897 510.418075,51.7189566 509.494894,50.203285 C507.249666,46.5434927 506.130269,42.9495992 506.130269,39.4216045 C506.130269,36.7840466 506.688359,34.337756 507.812582,32.0779106 C508.933587,29.8196725 510.533875,27.8491387 512.611836,26.1695239 C514.689797,24.4866945 517.115158,23.1847921 519.887917,22.2606022 C522.65746,21.3396268 525.644128,20.8767282 528.843094,20.8767282 C534.287289,20.8767282 538.657119,22.1609504 541.957411,24.7342167 C543.541615,25.9862932 544.752687,27.4874992 545.595452,29.2346201 C546.434999,30.9833482 546.856382,32.9281654 546.856382,35.0706788 C546.856382,37.8721799 546.147109,40.164171 544.728562,41.9434376 C544.069147,42.8017288 543.252116,43.4607165 542.279077,43.9220078 C541.306038,44.3849064 540.275099,44.6147485 539.18626,44.6147485 C536.645099,44.6147485 534.583221,43.5603682 533.000625,41.4483932 C534.287289,40.5258106 535.302145,39.2978434 536.043584,37.7644917 C536.785024,36.23114 537.158156,34.5933146 537.158156,32.8445864 C537.158156,30.66832 536.513216,28.9453084 535.228161,27.6755518 C533.941498,26.4074024 532.175553,25.7709168 529.933542,25.7709168 C528.579328,25.7709168 527.332873,26.0200462 526.195785,26.5134833 C525.057087,27.0085277 524.093698,27.7173412 523.3024,28.6415312 C522.475719,29.5641139 521.840429,30.6522471 521.39653,31.9043236 C520.951023,33.1580074 520.727465,34.5258085 520.727465,36.0093344 C520.727465,38.1197021 521.222831,40.1480981 522.211953,42.0929153 C523.202684,44.0377325 524.619622,46.0645212 526.467592,48.1748889 C528.117738,50.1213134 529.898158,52.0500577 531.813678,53.9611218 C536.265534,58.5788571 539.416251,63.0776531 541.265829,67.4623318 C542.35306,70.0677439 542.896675,72.9351437 542.896675,76.0661386 C542.896675,79.3642913 542.221177,82.4229583 540.868572,85.2405323 C539.515967,88.0597135 537.584364,90.5076114 535.078587,92.5858334 C532.571202,94.6945938 529.652084,96.3275973 526.319626,97.4816293 C522.987168,98.634054 519.42311,99.2126773 515.63067,99.2126773 C512.39632,99.2126773 509.477202,98.7915682 506.871709,97.9509571 C504.266216,97.1103461 502.020988,95.8984517 500.140851,94.3168814 C498.275189,92.7722787 496.848601,90.9431862 495.846612,88.8376404 C493.223427,91.3434006 490.336476,93.23357 487.153593,94.4277842 C484.4709,95.4323385 481.665973,95.9354193 478.735598,95.9354193 C474.629533,95.9354193 471.383925,94.7219177 468.997164,92.2933072 C467.467643,90.7663846 466.390062,88.8215675 465.733864,86.4893942 C465.013333,87.5132359 464.268676,88.4679644 463.493462,89.3423284 C460.686927,92.4411776 457.566768,94.5965493 454.132985,95.8100509 C451.660983,96.6892369 448.95899,97.1280262 446.028615,97.1280262 C442.467774,97.1280262 439.598514,96.1861561 437.420837,94.3024158 C435.243159,92.4186756 433.903421,89.6782514 433.400013,86.0779287 C431.096886,89.552883 428.603976,92.230623 425.924499,94.1143633 C422.447291,96.6249454 418.593735,97.8818438 414.363829,97.8818438 C409.46325,97.8818438 405.505151,96.3533139 402.489534,93.2978615 C400.968055,91.7420078 399.798799,89.8389801 398.933518,87.6273533 C389.486192,89.0803407 322.422081,99.2673251 293.136014,99.9906042 C288.362493,100.107936 282.207417,99.1467786 278.752726,95.9547068 C276.645814,94.0098896 275.659908,91.0862347 275.272301,87.8909484 C274.828402,88.4840372 274.379678,89.0546241 273.918088,89.5930652 C271.15337,92.7337038 268.033211,94.9935492 264.557612,96.3742087 C262.001977,97.378763 259.299984,97.8818438 256.453241,97.8818438 C252.808767,97.8818438 249.907341,96.8885405 247.750572,94.8987193 C245.593802,92.9121127 244.284622,89.9707776 243.82464,86.0779287 C241.394454,89.5110936 238.838819,92.1904408 236.159343,94.1143633 C232.72556,96.6249454 228.892911,97.8818438 224.663006,97.8818438 C219.762426,97.8818438 215.804328,96.3533139 212.788711,93.2978615 C210.924657,91.3916192 209.567227,88.9742597 208.690688,86.0763215 C207.817365,87.3476854 206.903834,88.5258267 205.940445,89.5930652 C203.008461,92.7337038 199.698519,94.9935492 196.013837,96.3742087 C193.332752,97.378763 190.526218,97.8818438 187.595842,97.8818438 C183.489777,97.8818438 180.245777,96.6683422 177.857409,94.2397316 C175.176324,91.5619917 173.836586,87.648248 173.836586,82.4985008 C173.836586,82.3056264 173.852669,82.0966791 173.857494,81.9005901 C171.187667,85.2324958 168.3168,88.0998957 165.230416,90.4722511 C158.737591,95.4130511 151.617517,97.8818438 143.870195,97.8818438 C137.544637,97.8818438 132.664966,96.2906297 129.231183,93.1098089 C125.586709,89.7200409 123.76608,84.5076094 123.76608,77.4757292 C123.76608,74.8397787 124.028238,71.9000509 124.550945,68.6549387 C125.07526,65.413041 125.879425,62.1791797 126.969872,58.9549622 C127.24168,58.1239949 127.529571,57.3203514 127.825503,56.5263517 C124.904777,57.5823392 121.800702,58.4036628 118.487544,58.9549622 C117.985745,64.7733408 116.85509,70.0789949 115.095577,74.8703172 C113.336065,79.664854 111.074754,83.7762939 108.310036,87.2078514 C105.587135,90.5574373 102.466976,93.132311 98.9495603,94.930865 C95.430536,96.7310263 91.7024289,97.6294997 87.7668472,97.6294997 C81.3994719,97.6294997 76.4779844,96.0832897 73.002385,92.9844406 C69.1070116,89.552883 67.1593249,84.3420589 67.1593249,77.3503608 C67.1593249,74.7144103 67.4327409,71.79397 67.9763562,68.5922545 C68.5215798,65.390539 69.357911,62.1566777 70.4901748,58.892278 C73.0860181,51.1065803 76.793217,44.8912018 81.610163,40.2445354 C87.4307064,34.5531324 94.3626054,31.7066273 102.404251,31.7066273 C113.419698,31.7066273 118.928226,38.550455 118.928226,52.236503 L118.928226,52.236503 L118.928226,52.3618713 C119.179125,52.4470575 119.388208,52.4872397 119.555474,52.4872397 L119.555474,52.4872397 L120.309781,52.4872397 C123.158132,52.4872397 126.52919,51.69324 130.424563,50.1020259 C130.540363,50.0538073 130.651338,49.9991596 130.765529,49.9493337 C132.767899,46.186675 135.117668,42.9399555 137.838961,40.2445354 C143.617688,34.5531324 150.465954,31.7066273 158.38215,31.7066273 C163.533629,31.7066273 167.34376,32.9410237 169.815762,35.4114236 C171.742541,37.3787428 172.70593,40.0789848 172.70593,43.5105423 C172.70593,46.5242053 172.035257,48.8692369 170.695519,50.5424226 C169.439413,52.0902398 167.826259,52.8649521 165.857664,52.8649521 C164.434293,52.8649521 162.92568,52.3618713 161.335042,51.357317 C162.380456,48.6377876 162.90638,46.1063107 162.90638,43.7612791 C162.90638,42.1282756 162.600798,40.8408388 161.994457,39.8989687 C161.386509,38.9587058 160.495495,38.4877708 159.324631,38.4877708 C156.810812,38.4877708 154.194061,40.7058267 151.471159,45.1419386 C148.999157,49.0765769 146.948538,54.080061 145.314475,60.1475691 C143.638596,66.0913161 142.802265,71.4709053 142.802265,76.2831223 C142.802265,80.4701047 143.596779,83.3583993 145.189025,84.948006 C146.57058,86.3720622 148.873708,87.0824831 152.100016,87.0824831 C156.748088,87.0824831 160.998902,85.827192 164.852458,83.3150025 C166.486521,82.2702661 168.057859,81.0230114 169.564863,79.5796678 C171.073476,78.1363241 172.83138,76.3056244 174.841791,74.0859611 L174.841791,74.0859611 L183.575019,32.83655 L202.109405,32.83655 L192.87277,76.5338591 C192.536629,77.6235996 192.370971,79.0058664 192.370971,80.679052 C192.370971,82.4358166 192.779487,83.6718202 193.596518,84.3822411 C194.411941,85.0958764 195.742029,85.4494796 197.585175,85.4494796 C198.84128,85.4494796 200.066827,85.1682044 201.260207,84.6024394 C202.453587,84.0366744 203.553685,83.2523184 204.55889,82.247764 C205.720104,81.0873029 206.699576,79.6905706 207.539124,78.1025711 C207.534299,77.8068303 207.511783,77.5271624 207.511783,77.2249925 C207.511783,74.2113295 207.815757,71.032116 208.422097,67.6825301 C209.030046,64.3345515 209.919452,61.026755 211.091924,57.7623553 C213.7714,50.3961594 217.438391,44.4524125 222.086462,39.9311144 C227.447023,34.7829745 233.624616,32.2081008 240.620848,32.2081008 C244.096448,32.2081008 246.703549,32.8044043 248.442153,33.9986184 C250.179149,35.1912253 251.049255,36.7711884 251.049255,38.7385075 L251.049255,38.7385075 L251.049255,39.6803777 L252.432418,32.83655 L270.965195,32.83655 L261.730169,76.5338591 C261.352212,77.7907575 261.164037,79.1714169 261.164037,80.679052 C261.164037,84.3629536 262.923549,86.2032971 266.442574,86.2032971 C268.787518,86.2032971 270.923379,85.0106902 272.850157,82.6238692 C273.81033,81.4425133 274.657919,79.9364855 275.415442,78.1765063 C275.476559,77.5882393 275.540892,77.0064014 275.605225,76.455102 C276.102714,72.2210583 278.759882,58.7832063 281.579898,45.0606081 L282.158358,42.2525689 C285.570763,25.7262479 289.021908,9.66911656 289.021908,9.66911656 C289.021908,9.66911656 293.87056,8.91411307 298.714158,8.2217711 L299.458633,8.11586159 C303.298115,7.57235623 306.977139,7.09493497 308.058092,7.09424294 C305.399524,19.6150079 293.539704,76.5354664 292.798265,80.9571127 C292.614915,82.051675 291.982842,84.4947511 292.938189,86.0843579 C292.938189,86.0843579 296.363931,107.5111 397.45868,81.4167967 C397.307497,80.0891777 397.212606,78.7053037 397.212606,77.2249925 C397.212606,74.2113295 397.518189,71.032116 398.124529,67.6825301 C398.730869,64.3345515 399.620275,61.026755 400.794355,57.7623553 C403.473832,50.3961594 407.139214,44.4524125 411.788894,39.9311144 C417.149455,34.7829745 423.325439,32.2081008 430.321671,32.2081008 C433.797271,32.2081008 436.404372,32.8044043 438.142976,33.9986184 C439.879972,35.1912253 440.750078,36.7711884 440.750078,38.7385075 L440.750078,38.7385075 L440.750078,39.239981 L447.03382,9.66911656 L466.070005,7.09424294 Z M43.913821,0 C50.8248117,0 56.3751558,1.6330035 60.5632451,4.8974032 C62.5736567,6.48861724 64.1128277,8.39325222 65.1807583,10.6113081 C66.2486889,12.8309714 66.7826542,15.299764 66.7826542,18.0192935 C66.7826542,21.5778267 65.8819899,24.487016 64.0822695,26.7468614 C63.2427216,27.8349946 62.2053493,28.6723911 60.9717608,29.2574435 C59.7349556,29.8441033 58.4273839,30.1366295 57.0442208,30.1366295 C53.8195207,30.1366295 51.2027691,28.7977595 49.1923575,26.1184122 C50.8248117,24.9483073 52.1130834,23.3876318 53.0555643,21.4412073 C53.9980453,19.4947829 54.4692857,17.4133463 54.4692857,15.1936831 C54.4692857,12.4307569 53.6522545,10.2448467 52.0198003,8.63273797 C50.3857378,7.02223649 48.1437269,6.21537846 45.2969842,6.21537846 C43.5776802,6.21537846 41.9983009,6.53040669 40.5540213,7.15724859 C39.1081333,7.78569777 37.8825865,8.68577843 36.8773807,9.85749059 C35.8303584,11.0292027 35.0245854,12.4114695 34.4600619,14.0010762 C33.89393,15.5922903 33.6108641,17.3281601 33.6108641,19.2119004 C33.6108641,21.8912476 34.2397208,24.4661213 35.4958259,26.934914 C36.751931,29.4053139 38.5516514,31.9801875 40.8982038,34.6579275 C42.9922484,37.1283275 45.2535593,39.5762255 47.6837447,42.0032287 C53.3386303,47.8633967 57.3369367,53.5773017 59.6834891,59.1433362 C61.0650439,62.4511327 61.7566254,66.0916375 61.7566254,70.0680653 C61.7566254,74.2534404 60.8977776,78.1350383 59.1816903,81.7144662 C57.4623864,85.2938942 55.012901,88.4007798 51.8300175,91.0383376 C48.6471339,93.7176849 44.9399351,95.7894777 40.7100292,97.253716 C36.4785151,98.7179544 31.9558933,99.4508772 27.1405556,99.4508772 C23.0344911,99.4508772 19.3272922,98.917258 16.0205674,97.8500195 C12.7106258,96.782781 9.86388311,95.2446074 7.47551422,93.2354988 C5.04532877,91.2263902 3.1925335,88.8411764 1.9155201,86.0782502 C0.636898371,83.315324 0,80.2614789 0,76.911893 C0,74.1087846 0.448723853,71.4599758 1.35099655,68.9686811 C2.25005258,66.4789937 3.51741601,64.3139782 5.15147849,62.4704201 C6.78393265,60.6300766 8.68980278,59.1963767 10.8690889,58.1709277 C13.0451583,57.1454786 15.3498941,56.6327541 17.7784712,56.6327541 C20.7940885,56.6327541 23.3288153,57.3849644 25.3810434,58.8925995 C27.4316632,60.3986273 28.7102849,62.4704201 29.213692,65.1079779 C24.7312784,65.1079779 21.1720459,66.3005848 18.5327776,68.6874059 C17.2766725,69.8173286 16.302025,71.197988 15.6120517,72.8309915 C14.9204702,74.4623877 14.5746794,76.2625491 14.5746794,78.2298682 C14.5746794,81.9973487 15.6747766,84.978866 17.8733626,87.1760272 C20.0719487,89.3747956 23.0344911,90.4725726 26.7625982,90.4725726 C28.9820926,90.4725726 31.0552289,90.0643217 32.9836157,89.24782 C34.9087857,88.4329255 36.5846648,87.3126465 38.0096445,85.8901976 C39.4314075,84.4677487 40.5315047,82.76081 41.3067194,80.7725961 C42.0819341,78.7859895 42.4695414,76.6595489 42.4695414,74.3997035 C42.4695414,70.2159357 41.0445617,65.8617955 38.197819,61.3404974 C37.0671636,59.5821256 35.8191001,57.8558994 34.4600619,56.161819 C33.097807,54.4661313 31.2015869,52.2159297 28.7730098,49.411214 C26.595332,46.9006319 24.773095,44.7243654 23.3079071,42.8824146 C21.8411108,41.0404638 20.5222809,39.1567236 19.3498089,37.2311939 C16.5014578,32.5861347 15.0780864,28.0246545 15.0780864,23.5451459 C15.0780864,20.1971672 15.788968,17.0886744 17.2139477,14.2212745 C18.637319,11.355482 20.6686388,8.85293627 23.3079071,6.71845926 C25.9471753,4.58398225 29.0255174,2.93008403 32.5429335,1.75837187 C36.0619578,0.58665972 39.8511814,0 43.913821,0 Z M580.515335,12.4947269 L576.118163,32.83655 L583.844576,32.83655 L582.839371,37.98469 L575.112957,37.98469 L566.881528,76.5338591 C566.545387,77.6235996 566.379729,79.0058664 566.379729,80.679052 C566.379729,82.4358166 566.788245,83.6718202 567.605276,84.3822411 C568.420699,85.0958764 569.750787,85.4494796 571.593933,85.4494796 C572.850038,85.4494796 574.075585,85.1682044 575.268965,84.6024394 C576.462345,84.0366744 577.562442,83.2523184 578.567648,82.247764 C579.727253,81.0873029 580.708334,79.6905706 581.547882,78.1025711 C581.541449,77.8068303 581.520541,77.5271624 581.520541,77.2249925 C581.520541,74.2113295 581.824515,71.032116 582.430855,67.6825301 C583.038803,64.3345515 583.928209,61.026755 585.10229,57.7623553 C587.781766,50.3961594 591.447149,44.4524125 596.09522,39.9311144 C601.45739,34.7829745 607.633374,32.2081008 614.629606,32.2081008 C618.105205,32.2081008 620.712307,32.8044043 622.450911,33.9986184 C624.187906,35.1912253 625.058013,36.7711884 625.058013,38.7385075 L625.058013,38.7385075 L625.058013,39.6803777 L626.441176,32.83655 L644.973953,32.83655 L635.738927,76.5338591 C635.362578,77.7907575 635.172795,79.1714169 635.172795,80.679052 C635.172795,84.3629536 636.932307,86.2032971 640.451332,86.2032971 C642.796276,86.2032971 644.932137,85.0106902 646.858915,82.6238692 C648.472069,80.6404771 649.795724,77.8325469 650.837922,74.2161514 L650.837922,74.2161514 L659.612966,32.83655 L678.145743,32.83655 L676.764189,39.4923251 C679.276399,36.6876094 681.978392,34.7202903 684.86856,33.5903676 C687.004421,32.7529711 689.307548,32.3334692 691.77955,32.3334692 C696.134906,32.3334692 699.568689,33.4649992 702.082507,35.7248446 C704.761984,38.1952446 706.10333,41.9000409 706.10333,46.8376262 C706.10333,49.8094997 705.558107,53.6814539 704.469268,58.4518814 C704.176552,59.8341482 703.694053,61.905941 703.024988,64.6688672 C702.760663,65.6786626 702.512223,66.6440222 702.279669,67.5649295 L702.008229,68.64868 C701.304724,71.4817766 700.763887,73.8596132 700.38572,75.7816488 C700.049579,77.5384134 699.883921,78.9624696 699.883921,80.0506028 C699.883921,81.7671853 700.26992,83.0948042 701.045135,84.0366744 C701.82035,84.9785445 703.150438,85.4494796 705.0354,85.4494796 C707.589427,85.4494796 709.747804,84.4047431 711.505708,82.3104482 C712.348473,81.3107158 713.234662,79.8512993 714.159451,77.9386279 C714.157843,77.782721 714.144976,77.6348506 714.144976,77.4757292 C714.144976,74.8397787 714.407134,71.9000509 714.929841,68.6549387 C715.454156,65.413041 716.258321,62.1791797 717.348768,58.9549622 C719.902795,51.1290823 723.526361,44.8912018 728.217857,40.2445354 C733.998192,34.5531324 740.846458,31.7066273 748.761046,31.7066273 C753.914133,31.7066273 757.724265,32.9410237 760.196267,35.4114236 C762.121437,37.3787428 763.086435,40.0789848 763.086435,43.5105423 C763.086435,46.5242053 762.415761,48.8692369 761.076023,50.5424226 C759.81831,52.0902398 758.205155,52.8649521 756.238169,52.8649521 C754.813189,52.8649521 753.306185,52.3618713 751.713939,51.357317 C752.760961,48.6377876 753.285276,46.1063107 753.285276,43.7612791 C753.285276,42.1282756 752.979694,40.8408388 752.373354,39.8989687 C751.767014,38.9587058 750.875999,38.4877708 749.703527,38.4877708 C747.191317,38.4877708 744.572957,40.7058267 741.851664,45.1419386 C739.378054,49.0765769 737.327434,54.080061 735.693371,60.1475691 C734.017492,66.0913161 733.181161,71.4709053 733.181161,76.2831223 C733.181161,80.4701047 733.975676,83.3583993 735.567922,84.948006 C736.951085,86.3720622 739.252604,87.0824831 742.478912,87.0824831 C747.128592,87.0824831 751.377798,85.827192 755.232963,83.3150025 C756.865417,82.2702661 758.436755,81.0230114 759.945368,79.5796678 C761.019732,78.5477896 762.230803,77.311786 763.564108,75.8861225 C763.646133,73.6728884 763.890599,71.2812455 764.310373,68.6870844 C764.836297,65.4644742 765.619553,62.2418639 766.666575,59.0176464 C767.839047,55.418931 769.336402,52.0082682 771.158639,48.7840507 C772.980876,45.5614404 775.105479,42.7149353 777.535664,40.2445354 C783.147125,34.5531324 790.058116,31.7066273 798.268636,31.7066273 C803.503748,31.7066273 807.315488,32.9619184 809.702249,35.4741078 C811.545394,37.441427 812.466967,40.2879321 812.466967,44.0120159 C812.466967,47.654128 811.670844,51.0760418 810.078598,54.2777573 C808.486352,57.4794728 806.287766,60.3163342 803.48284,62.7851269 C800.676305,65.2121301 797.491813,67.1489109 793.932581,68.5922545 C790.37174,70.0355981 786.685449,70.8842456 782.875317,71.1349824 C782.664626,73.3128561 782.561693,75.0278313 782.561693,76.2831223 C782.561693,80.4701047 783.356208,83.3583993 784.948454,84.948006 C786.331617,86.3720622 788.633136,87.0824831 791.859444,87.0824831 C796.509124,87.0824831 800.75833,85.827192 804.613495,83.3150025 C806.247558,82.2702661 807.817287,81.0230114 809.3259,79.5796678 C810.832904,78.1363241 812.592416,76.3056244 814.602828,74.0859611 L814.602828,74.0859611 L819,74.0859611 C814.93736,80.9506835 810.268381,86.4138517 804.989844,90.4722511 C798.497019,95.4130511 791.376946,97.8818438 783.629624,97.8818438 C777.304065,97.8818438 772.424394,96.2906297 768.99222,93.1098089 C766.24841,90.5590446 764.540364,86.9747948 763.861649,82.3586668 C761.296364,85.4960909 758.550946,88.2107985 755.609312,90.4722511 C749.116487,95.4130511 741.996414,97.8818438 734.249092,97.8818438 C727.923533,97.8818438 723.043862,96.2906297 719.610079,93.1098089 C717.778192,91.4044775 716.407896,89.2378548 715.497581,86.6131553 C713.575628,89.6525348 711.47515,92.0843599 709.181672,93.8636265 C705.746281,96.5429738 701.788183,97.8818438 697.307378,97.8818438 C691.988633,97.8818438 688.049835,96.3742087 685.495808,93.3605457 C683.276314,90.7663846 682.166567,87.4393007 682.166567,83.3776867 C682.166567,81.4537643 682.407816,79.2132064 682.888706,76.6608348 C683.369597,74.1084632 684.091737,70.8215614 685.056734,66.8033442 C686.020123,62.701548 686.742263,59.4258973 687.224762,56.976392 C687.704044,54.5284941 687.946902,52.4052681 687.946902,50.6051067 C687.946902,46.2091771 686.396472,44.0120159 683.297222,44.0120159 C681.119544,44.0120159 679.109133,45.1644406 677.265987,47.4660754 C675.715558,49.4333946 674.37582,52.236503 673.245164,55.8786151 L673.245164,55.8786151 L664.513545,97.1280262 L645.979159,97.1280262 L647.47973,90.051142 C644.824379,92.9378292 641.860228,95.0658771 638.56637,96.3742087 C636.010735,97.378763 633.308741,97.8818438 630.461999,97.8818438 C626.817525,97.8818438 623.916099,96.8885405 621.760938,94.8987193 C619.60256,92.9121127 618.29338,89.9707776 617.833398,86.0779287 C615.403212,89.5110936 612.849185,92.1904408 610.169709,94.1143633 C606.734318,96.6249454 602.901669,97.8818438 598.671763,97.8818438 C593.771184,97.8818438 589.813086,96.3533139 586.797469,93.2978615 C584.931807,91.3916192 583.575985,88.9742597 582.699446,86.0763215 C581.826123,87.3476854 580.912592,88.5258267 579.949203,89.5930652 C577.017219,92.7337038 573.708886,94.9935492 570.024203,96.3742087 C567.343118,97.378763 564.534976,97.8818438 561.6046,97.8818438 C557.498535,97.8818438 554.254535,96.6683422 551.866166,94.2397316 C549.18669,91.5619917 547.845343,87.648248 547.845343,82.4985008 C547.845343,80.0731049 548.181484,77.2667819 548.850549,74.0859611 L548.850549,74.0859611 L556.578571,37.98469 L552.306849,37.98469 L553.374779,32.83655 L557.583777,32.83655 L561.47915,15.0679933 L580.515335,12.4947269 Z M103.472182,39.4923251 C100.583623,39.4923251 97.75618,41.6685916 94.9914621,46.0211245 C92.435827,49.9557628 90.3417823,54.8113766 88.7093282,60.5879657 C87.1154739,66.2375792 86.3209593,71.2603508 86.3209593,75.6562804 C86.3209593,77.7907575 86.436759,79.5282346 86.6667501,80.8671046 C86.8967411,82.2075819 87.2843485,83.2523184 87.8295721,84.0061359 C88.3313708,84.7599535 88.9811358,85.2935727 89.7772588,85.6069937 C90.5717734,85.9204146 91.6187957,86.0779287 92.9183257,86.0779287 C94.4253302,86.0779287 95.9645013,85.3980464 97.5358389,84.0366744 C99.1071766,82.6785169 100.583623,80.7835257 101.965178,78.3549152 C103.346732,75.9279119 104.540113,73.0814068 105.545318,69.8170071 C106.550524,66.5526074 107.304831,63.0583657 107.808238,59.3310674 C106.550524,58.9967517 105.661118,58.3699098 105.138411,57.4473271 C104.612488,56.527959 104.351938,55.3562468 104.351938,53.9321906 C104.351938,52.1738188 104.707379,50.7095804 105.419869,49.5378682 C106.132359,48.3661561 107.116656,47.5078649 108.372761,46.9629946 C108.205495,44.2434652 107.764813,42.2970407 107.053931,41.1237213 C106.677582,40.5386689 106.206342,40.119167 105.64021,39.8684302 C105.075686,39.6176935 104.351938,39.4923251 103.472182,39.4923251 Z M244.578946,40.1818512 C242.859642,40.1818512 241.195022,40.7476162 239.583476,41.8775389 C237.970322,43.0074615 236.452059,44.5777809 235.028687,46.5868895 C232.516477,50.2273943 230.443341,54.9785344 228.809278,60.8387025 C228.054972,63.4344708 227.490448,65.9980934 227.112491,68.5295703 C226.736142,71.0626545 226.547967,73.3546456 226.547967,75.4039364 C226.547967,79.6744977 227.342482,82.561185 228.934728,84.0688201 C229.478343,84.6554798 230.086292,85.0331923 230.756965,85.1987428 C231.42603,85.3675079 232.180336,85.4494796 233.018276,85.4494796 C233.981665,85.4494796 234.998129,85.1987428 236.06606,84.6972693 C237.13399,84.1941885 238.169754,83.4837677 239.17496,82.561185 C241.437879,80.3865258 242.944884,77.5609154 243.69919,74.0859611 L243.69919,74.0859611 L249.855874,45.0792544 C249.855874,44.6613598 249.760983,44.16953 249.572809,43.603765 C249.384634,43.0396073 249.122476,42.505988 248.787944,42.0029072 C247.782738,40.7894056 246.378667,40.1818512 244.578946,40.1818512 Z M434.27977,40.1818512 C432.562074,40.1818512 430.895845,40.7476162 429.285907,41.8775389 C427.672753,43.0074615 426.152882,44.5777809 424.731119,46.5868895 C422.2173,50.2273943 420.144164,54.9785344 418.510102,60.8387025 C417.757403,63.4344708 417.191272,65.9980934 416.814923,68.5295703 C416.436965,71.0626545 416.248791,73.3546456 416.248791,75.4039364 C416.248791,79.6744977 417.043305,82.561185 418.635551,84.0688201 C419.179167,84.6554798 419.787115,85.0331923 420.457788,85.1987428 C421.126853,85.3675079 421.88116,85.4494796 422.720707,85.4494796 C423.640672,85.4494796 424.636228,85.2212448 425.704158,84.7599535 C426.772089,84.2986621 427.786944,83.6509255 428.750334,82.813529 C431.013253,80.7626309 432.520257,78.0832837 433.274564,74.7770945 L433.274564,74.7770945 L433.274564,74.0859611 L439.556698,44.640465 C439.263982,43.4687529 438.844208,42.5268828 438.300593,41.8148547 C437.420837,40.7267214 436.07949,40.1818512 434.27977,40.1818512 Z M618.587704,40.1818512 C616.870009,40.1818512 615.203779,40.7476162 613.592234,41.8775389 C611.979079,43.0074615 610.460817,44.5777809 609.037445,46.5868895 C606.525235,50.2273943 604.452099,54.9785344 602.818036,60.8387025 C602.06373,63.4344708 601.499206,65.9980934 601.121249,68.5295703 C600.7449,71.0626545 600.556725,73.3546456 600.556725,75.4039364 C600.556725,79.6744977 601.35124,82.561185 602.943486,84.0688201 C603.487101,84.6554798 604.09505,85.0331923 604.765723,85.1987428 C605.434788,85.3675079 606.189094,85.4494796 607.027034,85.4494796 C607.990423,85.4494796 609.006887,85.1987428 610.074818,84.6972693 C611.142748,84.1941885 612.178512,83.4837677 613.183718,82.561185 C615.446637,80.3865258 616.953642,77.5609154 617.707948,74.0859611 L617.707948,74.0859611 L623.864632,45.0792544 C623.864632,44.6613598 623.771349,44.16953 623.581566,43.603765 C623.393392,43.0396073 623.131234,42.505988 622.796702,42.0029072 C621.791496,40.7894056 620.387425,40.1818512 618.587704,40.1818512 Z M334.103054,46.373924 C335.688867,46.373924 336.983572,46.6857376 337.990386,47.3045431 C338.995592,47.9265631 339.706473,48.7800325 340.12303,49.8729876 C340.539588,50.9643354 340.624829,52.2099827 340.375538,53.6115369 C340.214705,54.530905 339.878564,55.4679533 339.365507,56.4178598 C338.85245,57.3725883 338.199469,58.3273167 337.411387,59.2788305 C336.621698,60.2319517 335.6953,61.1915019 334.627369,62.1574814 L334.627369,62.1574814 L328.634735,67.6351151 L336.86938,67.6351151 C337.327754,67.6351151 337.68802,67.791022 337.942136,68.1012283 C338.19786,68.4098274 338.28471,68.7971836 338.204294,69.2552603 C338.122269,69.7149444 337.900319,70.0926568 337.536837,70.3916122 C337.174963,70.6905676 336.761622,70.8400452 336.303248,70.8400452 L336.303248,70.8400452 L324.202179,70.8400452 C323.695556,70.8400452 323.319207,70.6905676 323.073132,70.3916122 C322.827058,70.0926568 322.74825,69.6908351 322.838316,69.186147 C322.918733,68.726463 323.15194,68.3117829 323.539548,67.9453215 L323.539548,67.9453215 L332.694158,59.6404701 C333.840896,58.6085919 334.778552,57.5976084 335.503909,56.609127 C336.229265,55.6206455 336.671556,54.6787754 336.829172,53.7835166 C336.97553,52.9557638 336.920847,52.2276629 336.665122,51.5959991 C336.409398,50.9643354 335.991233,50.4644691 335.412234,50.0964004 C334.831627,49.7283317 334.140046,49.545101 333.335881,49.545101 C332.554233,49.545101 331.737202,49.7813722 330.884787,50.2507 C330.032373,50.721635 329.27485,51.3950883 328.615435,52.2662378 C328.356494,52.5651931 328.102378,52.766104 327.854695,52.8689704 C327.605404,52.973444 327.367371,53.0264845 327.13738,53.0264845 C326.722431,53.0264845 326.360557,52.8689704 326.046933,52.5603713 C325.733309,52.2501649 325.614292,51.8885253 325.686667,51.4754526 C325.742959,51.1539952 325.900575,50.8437889 326.162733,50.5448335 C326.421674,50.2474854 326.740123,49.9356717 327.11808,49.6142144 C328.078253,48.6032309 329.194433,47.8108385 330.46823,47.237037 C331.742027,46.6616283 332.953099,46.373924 334.103054,46.373924 Z M365.621964,52.4044644 C367.209385,52.4044644 368.377032,52.743602 369.131339,53.421877 C369.885645,54.0985448 370.334369,55.0050546 370.479119,56.1430138 C370.623868,57.2809729 370.570793,58.5507296 370.323111,59.9522837 L370.323111,59.9522837 L368.711565,69.0816734 C368.623107,69.5879687 368.388291,70.0074706 368.008725,70.340179 C367.627551,70.6728874 367.18526,70.8400452 366.680245,70.8400452 C366.197746,70.8400452 365.81818,70.6728874 365.544764,70.340179 C365.268132,70.0074706 365.176457,69.5879687 365.264915,69.0816734 L365.264915,69.0816734 L366.870028,59.9844295 C367.011561,59.180786 367.032469,58.4462559 366.932753,57.7808391 C366.82982,57.1154224 366.546754,56.5801958 366.077121,56.1783741 C365.607489,55.7765524 364.901433,55.5756415 363.958952,55.5756415 C363.064721,55.5756415 362.22839,55.7765524 361.458,56.1783741 C360.684394,56.5801958 360.045887,57.1154224 359.536047,57.7808391 C359.027814,58.4462559 358.702932,59.180786 358.561399,59.9844295 L358.561399,59.9844295 L356.956286,69.0816734 C356.867828,69.5879687 356.631404,70.0074706 356.25023,70.340179 C355.870664,70.6728874 355.428374,70.8400452 354.92175,70.8400452 C354.416735,70.8400452 354.032344,70.6728874 353.768578,70.340179 C353.504812,70.0074706 353.41957,69.5879687 353.508029,69.0816734 L353.508029,69.0816734 L355.119574,59.9522837 C355.261107,59.1486403 355.282016,58.4141102 355.180691,57.7454788 C355.080975,57.080062 354.799517,56.5512647 354.341143,56.1606939 C353.881161,55.7717305 353.179929,55.5756415 352.237449,55.5756415 C351.341609,55.5756415 350.51332,55.7717305 349.754188,56.1606939 C348.996665,56.5512647 348.367808,57.080062 347.870835,57.7454788 C347.375469,58.4141102 347.053803,59.1486403 346.913879,59.9522837 L346.913879,59.9522837 L345.302333,69.0816734 C345.213875,69.5879687 344.972625,70.0074706 344.580193,70.340179 C344.187761,70.6728874 343.751904,70.8400452 343.267796,70.8400452 C342.762781,70.8400452 342.37839,70.6728874 342.114624,70.340179 C341.850858,70.0074706 341.764009,69.5879687 341.854075,69.0816734 L341.854075,69.0816734 L344.432227,54.4714354 C344.520685,53.9667473 344.755501,53.5488527 345.136675,53.214537 C345.516241,52.8818286 345.96014,52.7162781 346.465155,52.7162781 C346.949262,52.7162781 347.325611,52.8818286 347.602244,53.214537 C347.87566,53.5488527 347.968943,53.9667473 347.880485,54.4714354 L347.880485,54.4714354 L347.687485,55.5627832 C347.75021,55.4840261 347.79846,55.4100909 347.86601,55.3345485 C348.3276,54.8041438 348.87604,54.323565 349.517764,53.886383 C350.15627,53.4524155 350.846244,53.0939905 351.584467,52.8191445 C352.32269,52.5426911 353.094688,52.4044644 353.898853,52.4044644 C355.600465,52.4044644 356.83727,52.8255736 357.609268,53.6613628 C358.218825,54.3283869 358.593566,55.1834635 358.749574,56.2153417 C359.145223,55.6560058 359.664713,55.0918481 360.335386,54.5244759 C361.051093,53.9169214 361.869732,53.410626 362.792913,53.007197 C363.712877,52.6069826 364.656967,52.4044644 365.621964,52.4044644 Z M396.451062,59.0964035 L398.019183,59.4532212 L396.410854,66.4754576 L394.842733,66.1170327 L395.421731,63.5887704 L373.024139,63.5887704 L373.024139,61.9814835 L395.790039,61.9814835 L396.451062,59.0964035 Z M298.59211,59.0955998 L300.160231,59.4540248 L299.581232,61.9806798 L324.285169,61.9806798 L324.285169,63.5879667 L299.212925,63.5879667 L298.551902,66.474654 L296.983781,66.1178363 L298.59211,59.0955998 Z M799.336567,38.4877708 C797.786138,38.4877708 796.226058,39.239981 794.656329,40.7476162 C793.084991,42.253644 791.566728,44.3254368 790.101541,46.9629946 C788.760194,49.4333946 787.545905,52.236503 786.457067,55.3755343 C785.366619,58.5145656 784.50938,61.7178884 783.880523,64.9822881 C786.268892,64.8151303 788.592928,64.1256042 790.854239,62.9104953 C793.117158,61.6969937 795.127569,60.1073869 796.885473,58.1384605 C798.644985,56.1293518 800.02654,53.8807575 801.031746,51.3894628 C802.036952,48.8997753 802.540359,46.3570475 802.540359,43.7612791 C802.540359,42.0446967 802.297501,40.7379724 801.818219,39.8362845 C801.33572,38.9378111 800.507431,38.4877708 799.336567,38.4877708 Z M196.328426,5.46300746 C197.711589,5.46300746 199.030419,5.72499523 200.286525,6.24736347 C201.54263,6.771339 202.652377,7.51390555 203.615766,8.47667041 C204.579155,9.43943526 205.322203,10.5484632 205.846519,11.8037543 C206.369226,13.0590454 206.631383,14.3786279 206.631383,15.7592874 C206.631383,17.1399468 206.369226,18.4595294 205.846519,19.7148204 C205.322203,20.9701115 204.579155,22.03735 203.615766,22.916536 C202.652377,23.8375114 201.54263,24.5591832 200.286525,25.0831587 C199.030419,25.6071342 197.711589,25.8675147 196.328426,25.8675147 C194.946872,25.8675147 193.628042,25.6071342 192.370328,25.0831587 C191.114223,24.5591832 190.023776,23.8375114 189.103811,22.916536 C188.182239,22.03735 187.460099,20.9701115 186.935784,19.7148204 C186.411468,18.4595294 186.150919,17.1399468 186.150919,15.7592874 C186.150919,14.3786279 186.411468,13.0590454 186.935784,11.8037543 C187.460099,10.5484632 188.182239,9.43943526 189.103811,8.47667041 C190.023776,7.51390555 191.114223,6.771339 192.370328,6.24736347 C193.628042,5.72499523 194.946872,5.46300746 196.328426,5.46300746 Z M487.467539,3.51674375 C488.850702,3.51674375 490.169532,3.77873151 491.425637,4.30109976 C492.681742,4.82507529 493.791489,5.56764184 494.754878,6.53040669 C495.716659,7.49317155 496.461316,8.60219952 496.985631,9.85749059 C497.50673,11.1127817 497.770496,12.4323642 497.770496,13.8130237 C497.770496,15.1936831 497.50673,16.5132657 496.985631,17.7685567 C496.461316,19.0238478 495.716659,20.0910863 494.754878,20.9702722 C493.791489,21.8912476 492.681742,22.6129195 491.425637,23.136895 C490.169532,23.6608705 488.850702,23.921251 487.467539,23.921251 C486.085984,23.921251 484.767154,23.6608705 483.50944,23.136895 C482.253335,22.6129195 481.162888,21.8912476 480.242924,20.9702722 C479.319743,20.0910863 478.597603,19.0238478 478.074896,17.7685567 C477.550581,16.5132657 477.290031,15.1936831 477.290031,13.8130237 C477.290031,12.4323642 477.550581,11.1127817 478.074896,9.85749059 C478.597603,8.60219952 479.319743,7.49317155 480.242924,6.53040669 C481.162888,5.56764184 482.253335,4.82507529 483.50944,4.30109976 C484.767154,3.77873151 486.085984,3.51674375 487.467539,3.51674375 Z" id="path-1"></path>
        <filter x="-5.5%" y="-45.0%" width="111.0%" height="190.0%" filterUnits="objectBoundingBox" id="filter-2">
            <feOffset dx="0" dy="4" in="SourceAlpha" result="shadowOffsetOuter1"></feOffset>
            <feGaussianBlur stdDeviation="8.5" in="shadowOffsetOuter1" result="shadowBlurOuter1"></feGaussianBlur>
            <feColorMatrix values="0 0 0 0 0   0 0 0 0 0   0 0 0 0 0  0 0 0 1 0" type="matrix" in="shadowBlurOuter1" result="shadowMatrixOuter1"></feColorMatrix>
            <feOffset dx="0" dy="0" in="SourceAlpha" result="shadowOffsetOuter2"></feOffset>
            <feGaussianBlur stdDeviation="15" in="shadowOffsetOuter2" result="shadowBlurOuter2"></feGaussianBlur>
            <feColorMatrix values="0 0 0 0 0.635421219   0 0 0 0 1   0 0 0 0 0  0 0 0 0.805315778 0" type="matrix" in="shadowBlurOuter2" result="shadowMatrixOuter2"></feColorMatrix>
            <feMerge>
                <feMergeNode in="shadowMatrixOuter1"></feMergeNode>
                <feMergeNode in="shadowMatrixOuter2"></feMergeNode>
            </feMerge>
        </filter>
        <filter x="-4.1%" y="-33.5%" width="108.2%" height="167.0%" filterUnits="objectBoundingBox" id="filter-3">
            <feGaussianBlur stdDeviation="2.5" in="SourceAlpha" result="shadowBlurInner1"></feGaussianBlur>
            <feOffset dx="0" dy="2" in="shadowBlurInner1" result="shadowOffsetInner1"></feOffset>
            <feComposite in="shadowOffsetInner1" in2="SourceAlpha" operator="arithmetic" k2="-1" k3="1" result="shadowInnerInner1"></feComposite>
            <feColorMatrix values="0 0 0 0 0.635294118   0 0 0 0 1   0 0 0 0 0  0 0 0 1 0" type="matrix" in="shadowInnerInner1"></feColorMatrix>
        </filter>
    </defs>
    <g id="Page-1" stroke="none" stroke-width="1" fill="none" fill-rule="evenodd">
        <g id="game-copy-2" transform="translate(-362.000000, -291.000000)">
            <g id="img_main_logo" transform="translate(391.000000, 320.000000)">
                <use fill="black" fill-opacity="1" filter="url(#filter-2)" xlink:href="#path-1"></use>
                <use fill="#FCFFF7" fill-rule="evenodd" xlink:href="#path-1"></use>
                <use fill="black" fill-opacity="1" filter="url(#filter-3)" xlink:href="#path-1"></use>
            </g>
        </g>
    </g>
</svg>