<?xml version="1.0" encoding="UTF-8"?>
<svg width="629px" height="174px" viewBox="0 0 629 174" version="1.1" xmlns="http://www.w3.org/2000/svg" xmlns:xlink="http://www.w3.org/1999/xlink">
    <title>GameStart</title>
    <defs>
        <path d="M530.970703,462.84375 C538.431641,462.84375 544.486328,460.050781 549.134766,454.464844 C553.783203,448.800781 557.396484,440.03125 559.974609,428.15625 L559.974609,428.15625 L568.763672,387.84375 L554.583984,387.726562 C552.513672,396.554688 549.847656,403.224609 546.585938,407.736328 C543.324219,412.248047 539.505859,414.503906 535.130859,414.503906 C531.498047,414.503906 528.734375,412.931641 526.839844,409.787109 C524.945312,406.642578 523.998047,402.042969 523.998047,395.988281 C523.998047,388.605469 525.345703,381.574219 528.041016,374.894531 C529.291016,371.730469 530.794922,368.791016 532.552734,366.076172 C534.310547,363.361328 536.224609,361.027344 538.294922,359.074219 C540.404297,357.082031 542.601562,355.539062 544.886719,354.445312 C547.171875,353.351562 549.486328,352.804688 551.830078,352.804688 C554.408203,352.804688 556.390625,353.458984 557.777344,354.767578 C559.164062,356.076172 559.857422,357.941406 559.857422,360.363281 C559.857422,362.472656 559.349609,364.601562 558.333984,366.75 C557.318359,368.898438 556.107422,370.441406 554.701172,371.378906 C555.599609,372.589844 556.712891,373.517578 558.041016,374.162109 C559.369141,374.806641 560.775391,375.128906 562.259766,375.128906 C563.548828,375.128906 564.769531,374.855469 565.921875,374.308594 C567.074219,373.761719 568.060547,372.980469 568.880859,371.964844 C570.560547,369.855469 571.400391,367.101562 571.400391,363.703125 C571.400391,361.164062 570.892578,358.869141 569.876953,356.818359 C568.861328,354.767578 567.396484,353.019531 565.482422,351.574219 C563.568359,350.167969 561.234375,349.083984 558.480469,348.322266 C555.726562,347.560547 552.669922,347.179688 549.310547,347.179688 C541.224609,347.179688 533.783203,349.289062 526.986328,353.507812 C520.384766,357.570312 515.169922,363.195312 511.341797,370.382812 C509.427734,373.9375 507.972656,377.755859 506.976562,381.837891 C505.980469,385.919922 505.482422,390.167969 505.482422,394.582031 C505.482422,399.152344 506.029297,403.3125 507.123047,407.0625 C508.216797,410.8125 509.779297,414.015625 511.810547,416.671875 C513.841797,419.328125 516.283203,421.369141 519.134766,422.794922 C521.986328,424.220703 525.169922,424.933594 528.685547,424.933594 C532.318359,424.933594 535.667969,424.132812 538.734375,422.53125 C541.800781,420.929688 544.447266,418.605469 546.673828,415.558594 L546.673828,415.558594 L547.142578,415.558594 L541.166016,442.101562 C540.072266,446.984375 538.529297,450.666016 536.537109,453.146484 C534.544922,455.626953 532.162109,456.867188 529.388672,456.867188 C527.123047,456.867188 525.267578,456.046875 523.822266,454.40625 C522.337891,452.804688 521.595703,450.734375 521.595703,448.195312 C521.595703,445.617188 522.357422,443.527344 523.880859,441.925781 C525.326172,440.363281 527.279297,439.582031 529.740234,439.582031 C531.107422,439.582031 532.40625,439.855469 533.636719,440.402344 C534.867188,440.949219 535.853516,441.710938 536.595703,442.6875 C537.455078,441.554688 537.884766,440.03125 537.884766,438.117188 C537.884766,435.578125 536.957031,433.566406 535.101562,432.082031 C533.246094,430.597656 530.775391,429.855469 527.689453,429.855469 C525.462891,429.855469 523.353516,430.275391 521.361328,431.115234 C519.369141,431.955078 517.650391,433.136719 516.205078,434.660156 C514.720703,436.222656 513.568359,438.009766 512.748047,440.021484 C511.927734,442.033203 511.517578,444.191406 511.517578,446.496094 C511.517578,448.878906 511.986328,451.085938 512.923828,453.117188 C513.861328,455.148438 515.189453,456.886719 516.908203,458.332031 C518.626953,459.777344 520.677734,460.890625 523.060547,461.671875 C525.443359,462.453125 528.080078,462.84375 530.970703,462.84375 Z M620.693359,438.703125 C623.349609,438.703125 625.869141,438.234375 628.251953,437.296875 C631.494141,436.007812 634.404297,433.898438 636.982422,430.96875 C640.029297,427.414062 642.626953,422.589844 644.775391,416.496094 L644.775391,416.496094 L639.736328,416.496094 C638.759766,419.933594 637.509766,422.589844 635.986328,424.464844 C634.189453,426.691406 632.197266,427.804688 630.009766,427.804688 C626.728516,427.804688 625.087891,426.085938 625.087891,422.648438 C625.087891,421.242188 625.263672,419.953125 625.615234,418.78125 L625.615234,418.78125 L634.228516,378 L616.943359,378 L615.654297,384.386719 L615.654297,383.507812 C615.654297,381.671875 614.84375,380.197266 613.222656,379.083984 C611.601562,377.970703 609.169922,377.414062 605.927734,377.414062 C599.404297,377.414062 593.642578,379.816406 588.642578,384.621094 C584.306641,388.839844 580.888672,394.386719 578.388672,401.261719 C577.294922,404.308594 576.464844,407.394531 575.898438,410.519531 C575.332031,413.644531 575.048828,416.613281 575.048828,419.425781 C575.048828,426.066406 576.689453,431.066406 579.970703,434.425781 C582.783203,437.277344 586.474609,438.703125 591.044922,438.703125 C594.990234,438.703125 598.564453,437.53125 601.767578,435.1875 C604.267578,433.390625 606.650391,430.890625 608.916016,427.6875 C609.345703,431.320312 610.566406,434.064453 612.578125,435.919922 C614.589844,437.775391 617.294922,438.703125 620.693359,438.703125 Z M598.837891,427.101562 C598.056641,427.101562 597.353516,427.023438 596.728516,426.867188 C596.103516,426.710938 595.537109,426.359375 595.029297,425.8125 C593.544922,424.40625 592.802734,421.710938 592.802734,417.726562 C592.802734,415.8125 592.978516,413.673828 593.330078,411.310547 C593.681641,408.947266 594.208984,406.554688 594.912109,404.132812 C596.435547,398.664062 598.369141,394.230469 600.712891,390.832031 C602.041016,388.957031 603.457031,387.492188 604.960938,386.4375 C606.464844,385.382812 608.017578,384.855469 609.619141,384.855469 C611.298828,384.855469 612.607422,385.421875 613.544922,386.554688 C613.857422,387.023438 614.101562,387.521484 614.277344,388.048828 C614.453125,388.576172 614.541016,389.035156 614.541016,389.425781 L614.541016,389.425781 L608.798828,416.496094 C608.095703,419.738281 606.689453,422.375 604.580078,424.40625 C603.642578,425.265625 602.675781,425.929688 601.679688,426.398438 C600.683594,426.867188 599.736328,427.101562 598.837891,427.101562 Z M716.685547,438.703125 C720.865234,438.703125 724.556641,437.453125 727.759766,434.953125 C732.291016,431.4375 736.041016,425.285156 739.009766,416.496094 L739.009766,416.496094 L733.970703,416.496094 C732.525391,420.128906 731.177734,422.6875 729.927734,424.171875 C728.287109,426.125 726.275391,427.101562 723.892578,427.101562 C722.134766,427.101562 720.894531,426.662109 720.171875,425.783203 C719.449219,424.904297 719.087891,423.664062 719.087891,422.0625 C719.087891,421.046875 719.244141,419.71875 719.556641,418.078125 C720.181641,414.914062 720.982422,411.457031 721.958984,407.707031 C722.505859,405.753906 722.974609,403.820312 723.365234,401.90625 C724.341797,397.296875 724.830078,393.683594 724.830078,391.066406 C724.830078,386.457031 723.580078,383 721.080078,380.695312 C718.736328,378.585938 715.552734,377.53125 711.529297,377.53125 C708.716797,377.53125 706.119141,378.117188 703.736328,379.289062 C700.376953,380.929688 697.408203,383.742188 694.830078,387.726562 C694.205078,384.171875 692.779297,381.515625 690.552734,379.757812 C688.560547,378.195312 685.884766,377.414062 682.525391,377.414062 C680.064453,377.414062 677.740234,377.824219 675.552734,378.644531 C672.779297,379.738281 670.220703,381.59375 667.876953,384.210938 L667.876953,384.210938 L669.166016,378 L651.880859,378 L639.166016,438 L656.451172,438 L664.595703,399.503906 C665.650391,396.105469 666.919922,393.46875 668.404297,391.59375 C670.083984,389.40625 672.056641,388.3125 674.322266,388.3125 C675.572266,388.3125 676.529297,388.839844 677.193359,389.894531 C677.701172,390.753906 677.955078,391.984375 677.955078,393.585938 C677.955078,394.640625 677.837891,395.636719 677.603516,396.574219 L677.603516,396.574219 L668.814453,438 L686.099609,438 L694.244141,399.503906 C695.298828,396.105469 696.548828,393.488281 697.994141,391.652344 C699.712891,389.503906 701.587891,388.429688 703.619141,388.429688 C706.509766,388.429688 707.955078,390.480469 707.955078,394.582031 C707.955078,396.261719 707.730469,398.244141 707.28125,400.529297 C706.926604,402.333368 706.431965,404.61828 705.797335,407.384035 L705.536016,408.515982 C705.446422,408.901846 705.354338,409.296258 705.259766,409.699219 C704.361328,413.449219 703.6875,416.515625 703.238281,418.898438 C702.789062,421.28125 702.564453,423.371094 702.564453,425.167969 C702.564453,428.957031 703.599609,432.0625 705.669922,434.484375 C708.052734,437.296875 711.724609,438.703125 716.685547,438.703125 Z M755.138672,438.703125 C762.365234,438.703125 769.005859,436.398438 775.060547,431.789062 C779.982422,428 784.337891,422.902344 788.126953,416.496094 L788.126953,416.496094 L784.025391,416.496094 C782.150391,418.566406 780.509766,420.275391 779.103516,421.623047 C777.697266,422.970703 776.232422,424.132812 774.708984,425.109375 C771.115234,427.453125 767.150391,428.625 762.814453,428.625 C759.806641,428.625 757.658203,427.960938 756.369141,426.632812 C754.884766,425.148438 754.142578,422.453125 754.142578,418.546875 C754.142578,417.375 754.240234,415.773438 754.435547,413.742188 C757.990234,413.507812 761.427734,412.716797 764.748047,411.369141 C768.068359,410.021484 771.037109,408.214844 773.654297,405.949219 C776.271484,403.644531 778.322266,400.998047 779.806641,398.009766 C781.291016,395.021484 782.033203,391.828125 782.033203,388.429688 C782.033203,384.953125 781.173828,382.296875 779.455078,380.460938 C777.228516,378.117188 773.673828,376.945312 768.791016,376.945312 C761.134766,376.945312 754.689453,379.601562 749.455078,384.914062 C747.189453,387.21875 745.207031,389.875 743.507812,392.882812 C741.808594,395.890625 740.412109,399.074219 739.318359,402.433594 C738.341797,405.441406 737.609375,408.449219 737.121094,411.457031 C736.632812,414.464844 736.388672,417.199219 736.388672,419.660156 C736.388672,426.222656 738.087891,431.085938 741.486328,434.25 C744.689453,437.21875 749.240234,438.703125 755.138672,438.703125 Z M755.373047,408 C755.958984,404.953125 756.759766,401.964844 757.775391,399.035156 C758.791016,396.105469 759.923828,393.488281 761.173828,391.183594 C762.541016,388.722656 763.957031,386.789062 765.421875,385.382812 C766.886719,383.976562 768.341797,383.273438 769.787109,383.273438 C770.880859,383.273438 771.652344,383.693359 772.101562,384.533203 C772.550781,385.373047 772.775391,386.59375 772.775391,388.195312 C772.775391,390.617188 772.306641,392.990234 771.369141,395.314453 C770.431641,397.638672 769.142578,399.738281 767.501953,401.613281 C765.861328,403.449219 763.986328,404.933594 761.876953,406.066406 C759.767578,407.199219 757.599609,407.84375 755.373047,408 Z M847.396484,440.167969 C851.888672,440.167969 856.107422,439.484375 860.052734,438.117188 C863.998047,436.75 867.455078,434.816406 870.423828,432.316406 C873.392578,429.855469 875.677734,426.955078 877.279297,423.615234 C878.880859,420.275391 879.681641,416.652344 879.681641,412.746094 C879.681641,409.035156 879.037109,405.636719 877.748047,402.550781 C875.560547,397.355469 871.830078,392.023438 866.556641,386.554688 C864.291016,384.289062 862.181641,382.003906 860.228516,379.699219 C858.041016,377.199219 856.361328,374.796875 855.189453,372.492188 C854.017578,370.1875 853.431641,367.785156 853.431641,365.285156 C853.431641,363.527344 853.695312,361.90625 854.222656,360.421875 C854.75,358.9375 855.501953,357.648438 856.478516,356.554688 C857.416016,355.460938 858.558594,354.621094 859.90625,354.035156 C861.253906,353.449219 862.728516,353.15625 864.330078,353.15625 C866.986328,353.15625 869.076172,353.908203 870.599609,355.412109 C872.123047,356.916016 872.884766,358.957031 872.884766,361.535156 C872.884766,363.605469 872.445312,365.548828 871.566406,367.365234 C870.6875,369.181641 869.486328,370.636719 867.962891,371.730469 C869.837891,374.230469 872.279297,375.480469 875.287109,375.480469 C876.576172,375.480469 877.796875,375.207031 878.949219,374.660156 C880.101562,374.113281 881.068359,373.332031 881.849609,372.316406 C883.529297,370.207031 884.369141,367.492188 884.369141,364.171875 C884.369141,361.632812 883.871094,359.328125 882.875,357.257812 C881.878906,355.1875 880.443359,353.410156 878.568359,351.925781 C874.662109,348.878906 869.486328,347.355469 863.041016,347.355469 C859.251953,347.355469 855.716797,347.902344 852.435547,348.996094 C849.154297,350.089844 846.283203,351.632812 843.822266,353.625 C841.361328,355.617188 839.466797,357.951172 838.138672,360.626953 C836.810547,363.302734 836.146484,366.203125 836.146484,369.328125 C836.146484,373.507812 837.474609,377.765625 840.130859,382.101562 C841.224609,383.898438 842.455078,385.65625 843.822266,387.375 C845.189453,389.09375 846.888672,391.125 848.919922,393.46875 C851.185547,396.085938 852.953125,398.185547 854.222656,399.767578 C855.492188,401.349609 856.654297,402.960938 857.708984,404.601562 C860.365234,408.820312 861.693359,412.882812 861.693359,416.789062 C861.693359,418.898438 861.332031,420.880859 860.609375,422.736328 C859.886719,424.591797 858.861328,426.183594 857.533203,427.511719 C856.205078,428.839844 854.642578,429.884766 852.845703,430.646484 C851.048828,431.408203 849.115234,431.789062 847.044922,431.789062 C843.568359,431.789062 840.804688,430.763672 838.753906,428.712891 C836.703125,426.662109 835.677734,423.878906 835.677734,420.363281 C835.677734,418.527344 836,416.847656 836.644531,415.324219 C837.289062,413.800781 838.197266,412.511719 839.369141,411.457031 C841.830078,409.230469 845.150391,408.117188 849.330078,408.117188 C848.861328,405.65625 847.669922,403.722656 845.755859,402.316406 C843.841797,400.910156 841.478516,400.207031 838.666016,400.207031 C836.400391,400.207031 834.251953,400.685547 832.220703,401.642578 C830.189453,402.599609 828.412109,403.9375 826.888672,405.65625 C825.365234,407.375 824.183594,409.396484 823.34375,411.720703 C822.503906,414.044922 822.083984,416.515625 822.083984,419.132812 C822.083984,422.257812 822.679688,425.109375 823.871094,427.6875 C825.0625,430.265625 826.791016,432.492188 829.056641,434.367188 C831.283203,436.242188 833.939453,437.677734 837.025391,438.673828 C840.111328,439.669922 843.568359,440.167969 847.396484,440.167969 Z M902.314453,438.703125 C905.048828,438.703125 907.666016,438.234375 910.166016,437.296875 C913.603516,436.007812 916.689453,433.898438 919.423828,430.96875 C922.666016,427.375 925.361328,422.550781 927.509766,416.496094 L927.509766,416.496094 L922.470703,416.496094 C921.494141,419.660156 920.048828,422.199219 918.134766,424.113281 C917.197266,425.050781 916.171875,425.783203 915.058594,426.310547 C913.945312,426.837891 912.802734,427.101562 911.630859,427.101562 C909.912109,427.101562 908.671875,426.769531 907.910156,426.105469 C907.148438,425.441406 906.767578,424.289062 906.767578,422.648438 C906.767578,421.085938 906.923828,419.796875 907.236328,418.78125 L907.236328,418.78125 L914.912109,382.804688 L922.119141,382.804688 L923.056641,378 L915.849609,378 L919.951172,359.015625 L902.197266,361.417969 L898.564453,378 L894.638672,378 L893.642578,382.804688 L897.626953,382.804688 L890.419922,416.496094 C889.794922,419.464844 889.482422,422.082031 889.482422,424.347656 C889.482422,429.152344 890.732422,432.804688 893.232422,435.304688 C895.458984,437.570312 898.486328,438.703125 902.314453,438.703125 Z M970.533203,438.703125 C973.189453,438.703125 975.708984,438.234375 978.091797,437.296875 C981.333984,436.007812 984.244141,433.898438 986.822266,430.96875 C989.869141,427.414062 992.466797,422.589844 994.615234,416.496094 L994.615234,416.496094 L989.576172,416.496094 C988.599609,419.933594 987.349609,422.589844 985.826172,424.464844 C984.029297,426.691406 982.037109,427.804688 979.849609,427.804688 C976.568359,427.804688 974.927734,426.085938 974.927734,422.648438 C974.927734,421.242188 975.103516,419.953125 975.455078,418.78125 L975.455078,418.78125 L984.068359,378 L966.783203,378 L965.494141,384.386719 L965.494141,383.507812 C965.494141,381.671875 964.683594,380.197266 963.0625,379.083984 C961.441406,377.970703 959.009766,377.414062 955.767578,377.414062 C949.244141,377.414062 943.482422,379.816406 938.482422,384.621094 C934.146484,388.839844 930.728516,394.386719 928.228516,401.261719 C927.134766,404.308594 926.304688,407.394531 925.738281,410.519531 C925.171875,413.644531 924.888672,416.613281 924.888672,419.425781 C924.888672,426.066406 926.529297,431.066406 929.810547,434.425781 C932.623047,437.277344 936.314453,438.703125 940.884766,438.703125 C944.830078,438.703125 948.404297,437.53125 951.607422,435.1875 C954.107422,433.390625 956.490234,430.890625 958.755859,427.6875 C959.185547,431.320312 960.40625,434.064453 962.417969,435.919922 C964.429688,437.775391 967.134766,438.703125 970.533203,438.703125 Z M948.677734,427.101562 C947.896484,427.101562 947.193359,427.023438 946.568359,426.867188 C945.943359,426.710938 945.376953,426.359375 944.869141,425.8125 C943.384766,424.40625 942.642578,421.710938 942.642578,417.726562 C942.642578,415.8125 942.818359,413.673828 943.169922,411.310547 C943.521484,408.947266 944.048828,406.554688 944.751953,404.132812 C946.275391,398.664062 948.208984,394.230469 950.552734,390.832031 C951.880859,388.957031 953.296875,387.492188 954.800781,386.4375 C956.304688,385.382812 957.857422,384.855469 959.458984,384.855469 C961.138672,384.855469 962.447266,385.421875 963.384766,386.554688 C963.697266,387.023438 963.941406,387.521484 964.117188,388.048828 C964.292969,388.576172 964.380859,389.035156 964.380859,389.425781 L964.380859,389.425781 L958.638672,416.496094 C957.935547,419.738281 956.529297,422.375 954.419922,424.40625 C953.482422,425.265625 952.515625,425.929688 951.519531,426.398438 C950.523438,426.867188 949.576172,427.101562 948.677734,427.101562 Z M1006.29102,438 L1015.90039,392.414062 C1017.69727,390.773438 1019.18164,389.601562 1020.35352,388.898438 C1021.52539,388.195312 1022.95117,387.84375 1024.63086,387.84375 C1025.2168,387.84375 1025.64648,388.039062 1025.91992,388.429688 C1026.27148,388.976562 1026.62305,390.089844 1026.97461,391.769531 C1027.0918,392.394531 1027.30664,393.039062 1027.61914,393.703125 C1027.9707,394.367188 1028.45898,394.875 1029.08398,395.226562 C1029.70898,395.578125 1030.54883,395.753906 1031.60352,395.753906 C1032.9707,395.753906 1034.21094,395.5 1035.32422,394.992188 C1036.4375,394.484375 1037.38477,393.800781 1038.16602,392.941406 C1038.86914,392.121094 1039.39648,391.203125 1039.74805,390.1875 C1040.09961,389.171875 1040.27539,388.117188 1040.27539,387.023438 C1040.27539,385.8125 1040.09961,384.669922 1039.74805,383.595703 C1039.39648,382.521484 1038.86914,381.574219 1038.16602,380.753906 C1036.60352,378.917969 1034.5332,378 1031.95508,378 C1029.41602,378 1026.81836,378.761719 1024.16211,380.285156 C1022.44336,381.300781 1020.2168,383.019531 1017.48242,385.441406 L1017.48242,385.441406 L1019.00586,378 L1001.7207,378 L989.005859,438 L1006.29102,438 Z M1054.58789,438.703125 C1057.32227,438.703125 1059.93945,438.234375 1062.43945,437.296875 C1065.87695,436.007812 1068.96289,433.898438 1071.69727,430.96875 C1074.93945,427.375 1077.63477,422.550781 1079.7832,416.496094 L1079.7832,416.496094 L1074.74414,416.496094 C1073.76758,419.660156 1072.32227,422.199219 1070.4082,424.113281 C1069.4707,425.050781 1068.44531,425.783203 1067.33203,426.310547 C1066.21875,426.837891 1065.07617,427.101562 1063.9043,427.101562 C1062.18555,427.101562 1060.94531,426.769531 1060.18359,426.105469 C1059.42188,425.441406 1059.04102,424.289062 1059.04102,422.648438 C1059.04102,421.085938 1059.19727,419.796875 1059.50977,418.78125 L1059.50977,418.78125 L1067.18555,382.804688 L1074.39258,382.804688 L1075.33008,378 L1068.12305,378 L1072.22461,359.015625 L1054.4707,361.417969 L1050.83789,378 L1046.91211,378 L1045.91602,382.804688 L1049.90039,382.804688 L1042.69336,416.496094 C1042.06836,419.464844 1041.75586,422.082031 1041.75586,424.347656 C1041.75586,429.152344 1043.00586,432.804688 1045.50586,435.304688 C1047.73242,437.570312 1050.75977,438.703125 1054.58789,438.703125 Z" id="path-1"></path>
        <filter x="-7.8%" y="-38.9%" width="115.7%" height="177.8%" filterUnits="objectBoundingBox" id="filter-2">
            <feOffset dx="0" dy="4" in="SourceAlpha" result="shadowOffsetOuter1"></feOffset>
            <feGaussianBlur stdDeviation="8.5" in="shadowOffsetOuter1" result="shadowBlurOuter1"></feGaussianBlur>
            <feColorMatrix values="0 0 0 0 0   0 0 0 0 0   0 0 0 0 0  0 0 0 1 0" type="matrix" in="shadowBlurOuter1" result="shadowMatrixOuter1"></feColorMatrix>
            <feOffset dx="0" dy="0" in="SourceAlpha" result="shadowOffsetOuter2"></feOffset>
            <feGaussianBlur stdDeviation="15" in="shadowOffsetOuter2" result="shadowBlurOuter2"></feGaussianBlur>
            <feColorMatrix values="0 0 0 0 0.635421219   0 0 0 0 1   0 0 0 0 0  0 0 0 0.805315778 0" type="matrix" in="shadowBlurOuter2" result="shadowMatrixOuter2"></feColorMatrix>
            <feMerge>
                <feMergeNode in="shadowMatrixOuter1"></feMergeNode>
                <feMergeNode in="shadowMatrixOuter2"></feMergeNode>
            </feMerge>
        </filter>
        <filter x="-5.8%" y="-29.0%" width="111.7%" height="157.9%" filterUnits="objectBoundingBox" id="filter-3">
            <feGaussianBlur stdDeviation="2.5" in="SourceAlpha" result="shadowBlurInner1"></feGaussianBlur>
            <feOffset dx="0" dy="2" in="shadowBlurInner1" result="shadowOffsetInner1"></feOffset>
            <feComposite in="shadowOffsetInner1" in2="SourceAlpha" operator="arithmetic" k2="-1" k3="1" result="shadowInnerInner1"></feComposite>
            <feColorMatrix values="0 0 0 0 0.635294118   0 0 0 0 1   0 0 0 0 0  0 0 0 1 0" type="matrix" in="shadowInnerInner1"></feColorMatrix>
        </filter>
    </defs>
    <g id="Page-1" stroke="none" stroke-width="1" fill="none" fill-rule="evenodd">
        <g id="3.-Game_Start" transform="translate(-477.000000, -318.000000)" fill-rule="nonzero">
            <g id="GameStart">
                <use fill="black" fill-opacity="1" filter="url(#filter-2)" xlink:href="#path-1"></use>
                <use fill="#FFFFFF" xlink:href="#path-1"></use>
                <use fill="#FCFFF7" xlink:href="#path-1"></use>
                <use fill="black" fill-opacity="1" filter="url(#filter-3)" xlink:href="#path-1"></use>
            </g>
        </g>
    </g>
</svg>