<svg xmlns="http://www.w3.org/2000/svg" xmlns:xlink="http://www.w3.org/1999/xlink" width="437" height="80" viewBox="0 0 437 80">
    <defs>
        <filter id="4uxnpsrska" width="111%" height="190%" x="-5.5%" y="-45%" filterUnits="objectBoundingBox">
            <feOffset dy="2" in="SourceAlpha" result="shadowOffsetOuter1"/>
            <feGaussianBlur in="shadowOffsetOuter1" result="shadowBlurOuter1" stdDeviation="4.5"/>
            <feColorMatrix in="shadowBlurOuter1" result="shadowMatrixOuter1" values="0 0 0 0 0 0 0 0 0 0 0 0 0 0 0 0 0 0 1 0"/>
            <feOffset in="SourceAlpha" result="shadowOffsetOuter2"/>
            <feGaussianBlur in="shadowOffsetOuter2" result="shadowBlurOuter2" stdDeviation="7.5"/>
            <feColorMatrix in="shadowBlurOuter2" result="shadowMatrixOuter2" values="0 0 0 0 0.635421219 0 0 0 0 1 0 0 0 0 0 0 0 0 0.805315778 0"/>
            <feMerge>
                <feMergeNode in="shadowMatrixOuter1"/>
                <feMergeNode in="shadowMatrixOuter2"/>
            </feMerge>
        </filter>
        <filter id="ns11i3ogjc" width="108.3%" height="168%" x="-4.2%" y="-34%" filterUnits="objectBoundingBox">
            <feGaussianBlur in="SourceAlpha" result="shadowBlurInner1" stdDeviation="1.5"/>
            <feOffset dy="1" in="shadowBlurInner1" result="shadowOffsetInner1"/>
            <feComposite in="shadowOffsetInner1" in2="SourceAlpha" k2="-1" k3="1" operator="arithmetic" result="shadowInnerInner1"/>
            <feColorMatrix in="shadowInnerInner1" values="0 0 0 0 0.635294118 0 0 0 0 1 0 0 0 0 0 0 0 0 1 0"/>
        </filter>
        <path id="kgdrreoknb" d="M232.75 3.547l-7.373 34.72c-.188.628-.282 1.319-.282 2.073 0 .878.208 1.496.628 1.851.417.357 1.086.534 2.008.534 1.191 0 2.258-.534 3.2-1.601.503-.597.95-1.382 1.354-2.315.078-.843.213-1.75.421-2.74l4.362-20.624h9.255l-4.612 21.849c-.168.545-.252 1.236-.252 2.072 0 .879.204 1.497.612 1.852.408.357 1.072.534 1.993.534.627 0 1.24-.141 1.835-.424.324-.153.632-.346.927-.564l-.001-.035c0-1.104.176-2.147.53-3.128.356-.98.854-1.833 1.496-2.56.643-.725 1.392-1.289 2.249-1.693.856-.404 1.763-.606 2.718-.606 1.187 0 2.183.297 2.991.89.807.593 1.31 1.41 1.508 2.448-1.764 0-3.164.47-4.203 1.41-.494.444-.877.988-1.148 1.632-.272.643-.408 1.352-.408 2.126 0 1.484.433 2.658 1.298 3.524.864.865 2.03 1.298 3.496 1.298.873 0 1.689-.161 2.446-.482.759-.322 1.417-.762 1.978-1.323.56-.56.993-1.232 1.298-2.015.303-.783.457-1.62.457-2.51 0-1.648-.56-3.363-1.681-5.143-.445-.692-.935-1.373-1.47-2.04-.536-.668-1.282-1.554-2.237-2.66-.857-.988-1.573-1.845-2.15-2.57-.578-.725-1.096-1.468-1.557-2.225-1.12-1.83-1.68-3.627-1.68-5.391 0-1.319.279-2.542.84-3.672.56-1.13 1.36-2.114 2.397-2.954 1.038-.842 2.249-1.493 3.634-1.955 1.383-.46 2.874-.692 4.472-.692 2.718 0 4.9.642 6.549 1.93.791.625 1.396 1.376 1.817 2.25.419.874.63 1.846.63 2.917 0 1.401-.355 2.547-1.063 3.437-.33.429-.738.758-1.224.989-.485.231-1 .346-1.544.346-1.27 0-2.299-.527-3.09-1.583.643-.461 1.15-1.075 1.52-1.842.37-.766.557-1.585.557-2.46 0-1.088-.322-1.95-.964-2.584-.642-.634-1.524-.953-2.644-.953-.676 0-1.298.125-1.866.372-.569.247-1.05.602-1.445 1.064-.413.461-.73 1.005-.952 1.631-.223.627-.334 1.31-.334 2.053 0 1.055.247 2.069.741 3.041.495.973 1.203 1.986 2.125 3.041.824.974 1.714 1.938 2.67 2.894 2.223 2.308 3.797 4.558 4.72 6.75.543 1.303.815 2.737.815 4.302 0 1.65-.337 3.178-1.013 4.587-.675 1.41-1.64 2.634-2.891 3.673-1.253 1.054-2.71 1.87-4.375 2.448-1.664.576-3.444.865-5.337.865-1.616 0-3.073-.21-4.375-.63-1.3-.42-2.422-1.027-3.36-1.818-.933-.772-1.645-1.686-2.145-2.74-1.31 1.254-2.752 2.199-4.342 2.796-1.34.502-2.74.754-4.203.754-2.051 0-3.672-.607-4.864-1.821-.764-.764-1.302-1.736-1.63-2.902-.36.512-.731.989-1.118 1.426-1.402 1.55-2.96 2.627-4.675 3.234-1.234.44-2.584.659-4.047.659-1.778 0-3.211-.47-4.299-1.413-1.087-.942-1.756-2.312-2.008-4.112-1.15 1.737-2.395 3.076-3.733 4.018-1.736 1.255-3.66 1.884-5.773 1.884-2.447 0-4.424-.764-5.93-2.292-.76-.778-1.344-1.73-1.776-2.835-4.718.726-38.209 5.82-52.834 6.181-2.384.059-5.458-.422-7.183-2.018-1.052-.972-1.544-2.434-1.738-4.032-.222.297-.446.582-.676.852-1.38 1.57-2.939 2.7-4.675 3.39-1.276.502-2.625.754-4.047.754-1.82 0-3.269-.497-4.346-1.492-1.077-.993-1.73-2.464-1.96-4.41-1.214 1.717-2.49 3.056-3.829 4.018-1.714 1.255-3.628 1.884-5.74 1.884-2.448 0-4.425-.764-5.93-2.292-.931-.953-1.61-2.162-2.047-3.61-.436.635-.892 1.224-1.374 1.758-1.464 1.57-3.117 2.7-4.957 3.39-1.339.502-2.74.754-4.204.754-2.05 0-3.67-.607-4.863-1.821-1.339-1.339-2.008-3.296-2.008-5.87 0-.097.008-.202.01-.3-1.333 1.666-2.766 3.1-4.308 4.286-3.242 2.47-6.798 3.705-10.667 3.705-3.159 0-5.596-.796-7.31-2.386-1.82-1.695-2.73-4.301-2.73-7.817 0-1.318.131-2.788.392-4.41.262-1.621.664-3.238 1.208-4.85.136-.416.28-.818.428-1.215-1.459.528-3.009.939-4.664 1.214-.25 2.91-.815 5.562-1.693 7.958-.88 2.397-2.008 4.453-3.39 6.169-1.359 1.675-2.917 2.962-4.674 3.861-1.757.9-3.619 1.35-5.584 1.35-3.18 0-5.638-.773-7.373-2.323-1.946-1.716-2.918-4.321-2.918-7.817 0-1.318.136-2.778.408-4.379.272-1.6.69-3.218 1.255-4.85 1.296-3.893 3.148-7 5.553-9.324 2.907-2.845 6.369-4.269 10.385-4.269 5.5 0 8.252 3.422 8.252 10.265v.063c.125.043.23.063.313.063h.376c1.423 0 3.106-.397 5.052-1.193.057-.024.113-.051.17-.076 1-1.882 2.173-3.505 3.532-4.853 2.886-2.845 6.306-4.269 10.26-4.269 2.572 0 4.475.618 5.71 1.853.961.983 1.443 2.333 1.443 4.05 0 1.506-.335 2.679-1.004 3.515-.628.774-1.433 1.161-2.416 1.161-.711 0-1.465-.251-2.259-.753.522-1.36.785-2.626.785-3.798 0-.817-.153-1.46-.456-1.932-.303-.47-.748-.705-1.333-.705-1.255 0-2.562 1.109-3.922 3.327-1.234 1.967-2.258 4.469-3.074 7.503-.837 2.972-1.255 5.661-1.255 8.068 0 2.093.397 3.537 1.192 4.332.69.712 1.84 1.067 3.451 1.067 2.321 0 4.444-.627 6.369-1.883.816-.523 1.6-1.146 2.353-1.868.753-.722 1.631-1.637 2.635-2.747l4.361-20.625h9.256L96.32 38.267c-.168.545-.251 1.236-.251 2.073 0 .878.204 1.496.612 1.851.407.357 1.072.534 1.992.534.627 0 1.24-.14 1.835-.424.596-.283 1.146-.675 1.648-1.177.58-.58 1.069-1.279 1.488-2.073-.003-.148-.014-.287-.014-.439 0-1.506.152-3.096.455-4.77.303-1.675.748-3.329 1.333-4.96 1.338-3.684 3.17-6.656 5.49-8.916 2.678-2.575 5.763-3.862 9.257-3.862 1.735 0 3.037.298 3.905.895.868.597 1.302 1.387 1.302 2.37v.471l.691-3.422h9.255l-4.612 21.849c-.188.628-.282 1.319-.282 2.073 0 1.841.878 2.762 2.636 2.762 1.17 0 2.237-.597 3.2-1.79.479-.59.902-1.344 1.28-2.224.031-.294.063-.585.095-.86.238-2.021 1.457-8.235 2.793-14.763l.191-.935.289-1.404c1.704-8.263 3.428-16.291 3.428-16.291s2.151-.336 4.424-.664l.57-.082c1.994-.284 3.952-.542 4.512-.542-.558 2.63-1.926 9.175-3.353 16.047l-.204.983c-1.908 9.194-3.856 18.663-4.064 19.902-.091.547-.407 1.768.07 2.563 0 0 1.711 10.714 52.197-2.334-.076-.663-.123-1.355-.123-2.096 0-1.506.152-3.096.455-4.77.303-1.675.747-3.329 1.333-4.96 1.339-3.684 3.169-6.656 5.491-8.916 2.677-2.575 5.761-3.862 9.255-3.862 1.736 0 3.038.298 3.906.895.867.597 1.302 1.387 1.302 2.37v.251l3.138-14.785 9.506-1.288zM21.93 0c3.451 0 6.223.817 8.315 2.449 1.004.795 1.772 1.748 2.306 2.857.533 1.11.8 2.344.8 3.704 0 1.779-.45 3.234-1.349 4.363-.42.544-.937.963-1.553 1.256-.618.293-1.271.44-1.962.44-1.61 0-2.917-.67-3.92-2.01.814-.585 1.458-1.365 1.928-2.338.471-.974.706-2.014.706-3.124 0-1.382-.408-2.475-1.223-3.28-.816-.806-1.936-1.21-3.357-1.21-.859 0-1.647.158-2.369.472-.722.314-1.334.764-1.836 1.35-.523.586-.925 1.277-1.207 2.072-.283.795-.424 1.663-.424 2.605 0 1.34.314 2.627.941 3.861.628 1.236 1.526 2.523 2.698 3.862 1.046 1.235 2.175 2.46 3.389 3.673 2.824 2.93 4.82 5.787 5.992 8.57.69 1.654 1.036 3.474 1.036 5.462 0 2.093-.43 4.034-1.286 5.823-.859 1.79-2.082 3.343-3.672 4.662-1.59 1.34-3.44 2.376-5.553 3.108-2.113.732-4.372 1.098-6.776 1.098-2.05 0-3.902-.266-5.553-.8-1.653-.534-3.075-1.303-4.268-2.307C2.52 45.613 1.594 44.42.957 43.039.318 41.658 0 40.131 0 38.456c0-1.402.224-2.726.675-3.972.449-1.245 1.082-2.327 1.898-3.249.815-.92 1.767-1.637 2.855-2.15 1.087-.512 2.238-.769 3.45-.769 1.506 0 2.772.376 3.797 1.13 1.024.753 1.663 1.79 1.914 3.108-2.238 0-4.016.596-5.334 1.79-.627.565-1.114 1.255-1.459 2.071-.345.816-.518 1.716-.518 2.7 0 1.884.55 3.374 1.648 4.473 1.098 1.1 2.577 1.648 4.439 1.648 1.108 0 2.144-.204 3.107-.612.961-.408 1.798-.968 2.51-1.679.71-.711 1.259-1.565 1.646-2.559.387-.993.58-2.056.58-3.186 0-2.092-.71-4.27-2.132-6.53-.565-.879-1.188-1.742-1.867-2.59-.68-.847-1.627-1.972-2.84-3.374-1.088-1.256-1.998-2.344-2.73-3.265-.732-.92-1.39-1.863-1.976-2.825-1.422-2.323-2.133-4.604-2.133-6.843 0-1.674.355-3.229 1.066-4.662.711-1.433 1.726-2.685 3.044-3.752 1.318-1.067 2.855-1.894 4.612-2.48C18.009.293 19.902 0 21.93 0zm267.973 6.247l-2.196 10.171h3.859l-.502 2.574h-3.859l-4.11 19.275c-.168.545-.25 1.236-.25 2.073 0 .878.203 1.496.611 1.851.407.357 1.072.534 1.992.534.627 0 1.24-.14 1.835-.424.596-.283 1.146-.675 1.648-1.177.579-.58 1.069-1.279 1.488-2.073-.003-.148-.014-.287-.014-.439 0-1.506.152-3.096.455-4.77.303-1.675.748-3.329 1.334-4.96 1.338-3.684 3.168-6.656 5.49-8.916 2.678-2.575 5.762-3.862 9.256-3.862 1.735 0 3.037.298 3.905.895.868.597 1.302 1.387 1.302 2.37v.471l.691-3.422h9.255l-4.612 21.849c-.188.628-.282 1.319-.282 2.073 0 1.841.878 2.762 2.636 2.762 1.17 0 2.237-.597 3.2-1.79.805-.992 1.466-2.396 1.987-4.204l4.382-20.69h9.255l-.69 3.328c1.255-1.402 2.604-2.386 4.047-2.95 1.067-.42 2.217-.63 3.451-.63 2.175 0 3.89.566 5.146 1.696 1.338 1.236 2.008 3.088 2.008 5.557 0 1.486-.273 3.422-.816 5.807-.147.691-.388 1.727-.722 3.108-.607 2.323-1.046 4.175-1.318 5.557-.168.878-.25 1.59-.25 2.134 0 .859.192 1.522.58 1.993.387.471 1.05.707 1.992.707 1.276 0 2.354-.523 3.231-1.57.421-.5.864-1.23 1.326-2.186-.001-.078-.007-.152-.007-.231 0-1.318.13-2.788.391-4.41.262-1.621.664-3.238 1.208-4.85 1.276-3.913 3.085-7.032 5.428-9.356 2.887-2.845 6.307-4.269 10.26-4.269 2.573 0 4.476.618 5.71 1.853.961.983 1.443 2.333 1.443 4.05 0 1.506-.335 2.679-1.004 3.515-.628.774-1.433 1.161-2.416 1.161-.711 0-1.464-.251-2.259-.753.523-1.36.785-2.626.785-3.798 0-.817-.153-1.46-.456-1.932-.302-.47-.747-.705-1.333-.705-1.255 0-2.562 1.109-3.921 3.327-1.235 1.967-2.26 4.469-3.075 7.503-.837 2.972-1.255 5.661-1.255 8.068 0 2.093.397 3.537 1.192 4.332.69.712 1.84 1.067 3.451 1.067 2.322 0 4.444-.627 6.37-1.883.815-.523 1.6-1.146 2.353-1.868.536-.516 1.141-1.134 1.807-1.847.04-1.107.163-2.302.373-3.6.262-1.61.653-3.222 1.176-4.834.586-1.8 1.334-3.505 2.244-5.117.91-1.611 1.97-3.035 3.184-4.27 2.802-2.845 6.254-4.269 10.354-4.269 2.614 0 4.518.628 5.71 1.884.92.984 1.38 2.407 1.38 4.269 0 1.821-.397 3.532-1.192 5.133-.795 1.6-1.893 3.02-3.294 4.254-1.402 1.213-2.992 2.181-4.77 2.903-1.778.722-3.619 1.146-5.521 1.271-.106 1.09-.157 1.947-.157 2.575 0 2.093.397 3.537 1.192 4.332.69.712 1.84 1.067 3.451 1.067 2.322 0 4.444-.627 6.37-1.883.816-.523 1.6-1.146 2.353-1.868.752-.722 1.631-1.637 2.635-2.747H409c-2.029 3.432-4.36 6.164-6.997 8.193-3.242 2.47-6.798 3.705-10.667 3.705-3.159 0-5.595-.796-7.31-2.386-1.37-1.275-2.223-3.068-2.562-5.376-1.28 1.569-2.652 2.926-4.12 4.057-3.243 2.47-6.799 3.705-10.668 3.705-3.159 0-5.595-.796-7.31-2.386-.915-.853-1.6-1.936-2.054-3.248-.96 1.52-2.009 2.735-3.154 3.625-1.716 1.34-3.692 2.009-5.93 2.009-2.656 0-4.623-.754-5.899-2.26-1.108-1.298-1.662-2.961-1.662-4.992 0-.962.12-2.082.36-3.359.24-1.276.601-2.92 1.083-4.928.481-2.051.842-3.69 1.083-4.914.24-1.224.36-2.285.36-3.185 0-2.198-.774-3.297-2.322-3.297-1.087 0-2.091.576-3.011 1.727-.775.984-1.444 2.385-2.008 4.206l-4.36 20.625h-9.257l.75-3.538c-1.326 1.443-2.807 2.507-4.452 3.161-1.276.502-2.625.754-4.047.754-1.82 0-3.269-.497-4.345-1.492-1.078-.993-1.732-2.464-1.961-4.41-1.214 1.717-2.49 3.056-3.828 4.018-1.715 1.255-3.63 1.884-5.742 1.884-2.447 0-4.424-.764-5.93-2.292-.931-.953-1.608-2.162-2.046-3.61-.436.635-.892 1.224-1.373 1.758-1.465 1.57-3.117 2.7-4.957 3.39-1.339.502-2.741.754-4.205.754-2.05 0-3.67-.607-4.863-1.821-1.338-1.339-2.008-3.296-2.008-5.87 0-1.213.168-2.617.502-4.207l3.86-18.05h-2.134l.534-2.575h2.101l1.946-8.884 9.506-1.287zm-238.23 13.5c-1.443 0-2.855 1.087-4.235 3.264-1.277 1.967-2.322 4.395-3.137 7.283-.796 2.825-1.193 5.336-1.193 7.534 0 1.067.058 1.936.172 2.606.115.67.309 1.192.581 1.57.25.376.575.643.973.8.397.156.92.235 1.568.235.753 0 1.522-.34 2.306-1.02.785-.68 1.522-1.627 2.212-2.842.69-1.213 1.286-2.636 1.788-4.268.502-1.633.879-3.38 1.13-5.243-.628-.168-1.072-.481-1.333-.942-.263-.46-.393-1.046-.393-1.758 0-.88.178-1.611.534-2.197.355-.586.847-1.015 1.474-1.288-.083-1.36-.303-2.332-.658-2.92-.188-.292-.424-.501-.706-.627-.282-.125-.644-.188-1.083-.188zm70.467.344c-.858 0-1.69.283-2.495.848-.805.565-1.563 1.35-2.274 2.354-1.255 1.82-2.29 4.196-3.106 7.126-.377 1.298-.659 2.58-.847 3.846-.188 1.266-.282 2.412-.282 3.437 0 2.135.396 3.579 1.192 4.332.271.294.575.483.91.565.334.085.71.126 1.129.126.481 0 .989-.126 1.522-.376.533-.252 1.05-.607 1.552-1.068 1.13-1.088 1.883-2.5 2.26-4.238l3.074-14.503c0-.21-.047-.455-.141-.738-.094-.282-.225-.549-.392-.8-.502-.607-1.203-.911-2.102-.911zm94.735 0c-.858 0-1.69.283-2.494.848-.806.565-1.565 1.35-2.275 2.354-1.255 1.82-2.29 4.196-3.106 7.126-.376 1.298-.66 2.58-.847 3.846-.189 1.266-.283 2.412-.283 3.437 0 2.135.397 3.579 1.192 4.332.272.294.575.483.91.565.334.085.711.126 1.13.126.46 0 .957-.114 1.49-.345.533-.23 1.04-.555 1.521-.973 1.13-1.026 1.883-2.365 2.26-4.018v-.346l3.137-14.723c-.146-.586-.356-1.057-.627-1.413-.44-.544-1.11-.816-2.008-.816zm92.041 0c-.858 0-1.69.283-2.494.848-.806.565-1.564 1.35-2.275 2.354-1.255 1.82-2.29 4.196-3.106 7.126-.377 1.298-.659 2.58-.847 3.846-.188 1.266-.282 2.412-.282 3.437 0 2.135.396 3.579 1.192 4.332.271.294.575.483.91.565.334.085.71.126 1.129.126.481 0 .989-.126 1.522-.376.533-.252 1.05-.607 1.553-1.068 1.13-1.088 1.882-2.5 2.259-4.238l3.074-14.503c0-.21-.046-.455-.14-.738-.095-.282-.226-.549-.393-.8-.502-.607-1.203-.911-2.102-.911zm-142.068 3.096c.791 0 1.438.156 1.94.465.503.311.858.738 1.066 1.284.208.546.25 1.169.126 1.87-.08.46-.248.928-.504 1.403-.257.477-.583.955-.976 1.43-.395.477-.857.957-1.39 1.44l-2.993 2.739h4.112c.229 0 .409.078.536.233.127.154.17.348.13.577-.04.23-.151.418-.333.568-.18.15-.387.224-.616.224h-6.043c-.253 0-.44-.075-.564-.224-.123-.15-.162-.35-.117-.603.04-.23.157-.437.35-.62l4.572-4.153c.573-.516 1.04-1.021 1.403-1.515.362-.495.583-.966.662-1.413.073-.414.046-.778-.082-1.094-.128-.316-.337-.566-.626-.75-.29-.184-.635-.275-1.037-.275-.39 0-.798.118-1.224.352-.425.236-.804.573-1.133 1.008-.13.15-.256.25-.38.301-.124.053-.243.08-.358.08-.207 0-.388-.08-.545-.234-.156-.155-.216-.336-.18-.542.029-.161.107-.316.238-.466.13-.148.289-.304.477-.465.48-.505 1.037-.902 1.673-1.188.636-.288 1.241-.432 1.816-.432zm15.74 3.015c.793 0 1.376.17 1.752.509.377.338.601.792.673 1.36.073.57.046 1.204-.078 1.905l-.804 4.565c-.044.253-.162.463-.351.63-.19.165-.412.249-.664.249-.24 0-.43-.084-.567-.25-.138-.166-.184-.376-.14-.63l.802-4.548c.07-.402.081-.769.031-1.102-.051-.332-.192-.6-.427-.8-.234-.202-.587-.302-1.058-.302-.446 0-.864.1-1.249.301-.386.201-.705.469-.96.801-.253.333-.416.7-.486 1.102l-.802 4.549c-.044.253-.162.463-.352.63-.19.165-.41.249-.664.249-.252 0-.444-.084-.576-.25-.131-.166-.174-.376-.13-.63l.805-4.564c.07-.402.081-.769.03-1.103-.05-.333-.19-.597-.419-.793-.23-.194-.58-.292-1.05-.292-.448 0-.861.098-1.24.292-.379.196-.693.46-.941.793-.247.334-.408.701-.478 1.103l-.805 4.565c-.044.253-.164.463-.36.63-.196.165-.414.249-.656.249-.252 0-.444-.084-.576-.25-.131-.166-.175-.376-.13-.63l1.288-7.304c.044-.253.161-.462.352-.629.19-.166.41-.249.663-.249.242 0 .43.083.568.25.136.166.183.375.139.628l-.097.545c.032-.039.056-.076.09-.114.23-.265.504-.505.825-.724.318-.217.663-.396 1.032-.533.368-.139.754-.208 1.155-.208.85 0 1.468.21 1.853.629.305.333.492.76.57 1.277.197-.28.457-.562.792-.846.357-.304.766-.557 1.227-.758.46-.2.93-.302 1.413-.302zm15.395 3.346l.784.179-.804 3.51-.783-.178.29-1.265h-11.186v-.803h11.37l.33-1.443zm-48.87 0l.784.179-.29 1.263h12.338v.804h-12.521l-.33 1.443-.783-.178.803-3.511zM399.18 19.244c-.774 0-1.553.376-2.337 1.13-.785.753-1.543 1.789-2.275 3.107-.67 1.236-1.276 2.637-1.82 4.207-.544 1.57-.972 3.17-1.286 4.803 1.192-.083 2.353-.428 3.482-1.036 1.13-.607 2.134-1.401 3.012-2.386.879-1.004 1.569-2.129 2.07-3.374.503-1.245.754-2.516.754-3.814 0-.859-.121-1.512-.36-1.963-.241-.45-.655-.674-1.24-.674zM98.044 2.732c.691 0 1.35.13 1.977.392s1.181.633 1.663 1.114c.48.482.852 1.036 1.114 1.664.26.628.392 1.287.392 1.978 0 .69-.131 1.35-.392 1.977-.262.628-.633 1.162-1.114 1.601-.482.46-1.036.822-1.663 1.084-.627.262-1.286.392-1.977.392-.69 0-1.348-.13-1.976-.392-.628-.262-1.172-.623-1.632-1.084-.46-.44-.82-.973-1.082-1.6-.262-.628-.392-1.288-.392-1.978s.13-1.35.392-1.978c.262-.628.622-1.182 1.082-1.664.46-.481 1.004-.852 1.632-1.114.628-.262 1.286-.392 1.976-.392zm145.392-.974c.69 0 1.35.131 1.977.393s1.181.633 1.662 1.114c.48.482.853 1.036 1.114 1.664.26.627.392 1.287.392 1.978 0 .69-.131 1.35-.392 1.977-.261.628-.633 1.162-1.114 1.601-.48.46-1.035.821-1.662 1.083s-1.286.393-1.977.393c-.69 0-1.348-.13-1.976-.393-.628-.262-1.172-.622-1.632-1.083-.46-.44-.821-.973-1.082-1.6-.262-.628-.392-1.288-.392-1.978s.13-1.35.392-1.978c.26-.628.621-1.182 1.082-1.664.46-.481 1.004-.852 1.632-1.114.628-.262 1.286-.393 1.976-.393z"/>
    </defs>
    <g fill="none" fill-rule="evenodd">
        <g>
            <g transform="translate(-581 -85) translate(596 100)">
                <use fill="#000" filter="url(#4uxnpsrska)" xlink:href="#kgdrreoknb"/>
                <use fill="#FCFFF7" xlink:href="#kgdrreoknb"/>
                <use fill="#000" filter="url(#ns11i3ogjc)" xlink:href="#kgdrreoknb"/>
            </g>
        </g>
    </g>
</svg>
